# This file uses centimeters as units for non-parametric coordinates.

mtllib BeigeBag.mtl
g default
v -0.500000 0.000000 1.161118
v 0.500000 0.000000 1.006218
v -0.444930 0.000000 -1.133304
v 0.558828 0.000000 -1.092087
v -0.435788 0.799199 1.086591
v -0.335798 0.899189 1.086591
v -0.464951 0.845200 -1.263839
v -0.322217 0.945190 -1.263839
v 0.357266 0.976978 1.161118
v 0.457256 0.876988 1.161118
v 0.500000 0.879154 -1.161118
v 0.400010 0.979144 -1.161118
v 0.500000 0.000000 0.387039
v -0.542744 0.000000 0.387039
v -0.441172 0.926536 0.387039
v -0.400010 1.026526 0.387039
v 0.400010 1.026526 0.387039
v 0.500000 0.926536 0.387039
v 0.500000 0.000000 -0.387040
v -0.500000 0.000000 -0.387040
v -0.542744 0.879071 -0.387040
v -0.442754 0.979061 -0.387040
v 0.458838 0.979061 -0.387040
v 0.558828 0.879071 -0.387040
vt 0.050398 0.399840
vt 0.355665 0.399840
vt 0.070000 0.663664
vt 0.100524 0.696672
vt 0.342617 0.689343
vt 0.312093 0.722351
vt 0.514803 0.984875
vt 0.514803 0.733633
vt 0.764960 0.951286
vt 0.735653 0.750027
vt 0.981214 0.956262
vt 0.974653 0.872102
vt 0.869267 0.961182
vt 0.863125 0.872102
vt 0.577071 0.025461
vt 0.829181 0.025517
vt 0.577032 0.318678
vt 0.853999 0.318745
vt 0.066430 0.029639
vt 0.334781 0.029586
vt 0.019435 0.313100
vt 0.334752 0.324513
vt 0.032440 0.399840
vt 0.338854 0.399840
vt 0.050398 0.690058
vt 0.080922 0.723066
vt 0.344966 0.678849
vt 0.301394 0.711857
vt 0.334819 0.357977
vt 0.019783 0.346521
vt 0.577099 0.352110
vt 0.854220 0.352188
vt 0.858358 0.779703
vt 0.974653 0.779703
vt 0.863125 0.687303
vt 0.974653 0.705793
vt 0.613206 0.340361
vt 0.613296 0.029544
vt 0.864777 0.297655
vt 0.891736 0.029586
vt 0.864548 0.331114
vt 0.613170 0.373854
vt 0.293952 0.972964
vt 0.094365 0.955070
vt 0.293952 0.750026
vt 0.073102 0.761938
vt 0.023113 0.318052
vt 0.300144 0.334552
vt 0.022872 0.351502
vt 0.300057 0.368004
vt 0.078632 0.025461
vt 0.300144 0.025461
vn 0.152589 0.079601 0.985079
vn 0.037345 -0.040751 0.998471
vn 0.126255 0.048188 0.990827
vn -0.052319 -0.136012 0.989325
vn -0.096960 -0.173729 0.980009
vn -0.095790 -0.095790 0.990782
vn 0.000000 0.998790 -0.049187
vn -0.008275 0.999056 -0.042643
vn -0.017216 0.999581 -0.023278
vn -0.047488 0.998865 0.003716
vn 0.000000 -1.000000 0.000000
vn 0.000000 -1.000000 0.000000
vn 0.000000 -1.000000 0.000000
vn 0.000000 -1.000000 0.000000
vn 0.996987 -0.066719 0.039579
vn 0.999962 -0.005455 0.006801
vn 0.999786 -0.010932 0.017581
vn 0.995289 0.060660 -0.075632
vn -0.996678 -0.034968 -0.073549
vn -0.996637 -0.045455 -0.068180
vn -0.995760 -0.043046 -0.081299
vn -0.999783 -0.003923 -0.020456
vn 0.040910 -0.075492 -0.996307
vn 0.084242 -0.107217 -0.990660
vn 0.026195 -0.059725 -0.997871
vn 0.088121 -0.104701 -0.990592
vn 0.139403 -0.149520 -0.978882
vn 0.147346 -0.210333 -0.966462
vn -0.706850 0.706850 -0.026974
vn -0.705491 0.708158 -0.028189
vn -0.581839 0.806057 -0.108331
vn -0.570284 0.814070 -0.109847
vn 0.706934 0.706934 -0.022098
vn 0.706091 0.706091 -0.053585
vn 0.706947 0.706948 -0.021218
vn 0.706091 0.706091 -0.053585
vn 0.000000 -1.000000 0.000000
vn 0.000000 -1.000000 0.000000
vn 0.000000 -1.000000 0.000000
vn 0.000000 -1.000000 0.000000
vn -0.990897 0.108627 0.079520
vn -0.997580 0.059617 0.035779
vn -0.994340 0.098749 0.039212
vn -0.994861 0.085056 0.054935
vn -0.700828 0.700828 0.132964
vn -0.719927 0.680783 0.135057
vn -0.899039 0.428624 0.089495
vn -0.921263 0.379252 0.086275
vn 0.000000 0.998824 0.048487
vn -0.056555 0.991051 0.120911
vn -0.024995 0.999525 0.018037
vn -0.117406 0.991448 0.056979
vn 0.704607 0.704607 0.084009
vn 0.706350 0.706350 0.046261
vn 0.704607 0.704607 0.084009
vn 0.706278 0.706279 0.048388
vn 0.998814 0.048682 -0.000000
vn 0.999432 -0.007821 0.032769
vn 0.999165 0.015241 0.037906
vn 0.997854 0.000000 0.065477
s 1
g BeigeBag
f 1/1/1 2/2/2 5/3/3
f 5/3/3 2/2/2 6/4/4
f 2/2/2 10/5/5 6/4/4
f 10/5/5 9/6/6 6/4/4
s 2
f 22/7/7 23/8/8 8/9/9
f 8/9/9 23/8/8 12/10/10
s 3
f 4/11/11 19/12/12 3/13/13
f 3/13/13 19/12/12 20/14/14
s 4
f 19/15/15 4/16/16 24/17/17
f 24/17/17 4/16/16 11/18/18
s 5
f 3/19/19 20/20/20 7/21/21
f 7/21/21 20/20/20 21/22/22
s 6
f 4/23/23 3/24/24 11/25/25
f 11/25/25 3/24/24 12/26/26
f 3/24/24 7/27/27 12/26/26
f 7/27/27 8/28/28 12/26/26
s 7
f 21/22/29 22/29/30 7/21/31
f 7/21/31 22/29/30 8/30/32
s 8
f 24/17/33 11/18/34 23/31/35
f 23/31/35 11/18/34 12/32/36
s 3
f 14/33/37 13/34/38 1/35/39
f 1/35/39 13/34/38 2/36/40
s 5
f 15/37/41 14/38/42 5/39/43
f 5/39/43 14/38/42 1/40/44
s 7
f 5/39/45 6/41/46 15/37/47
f 15/37/47 6/41/46 16/42/48
s 2
f 16/43/49 6/44/50 17/45/51
f 17/45/51 6/44/50 9/46/52
s 8
f 10/47/53 18/48/54 9/49/55
f 9/49/55 18/48/54 17/50/56
s 4
f 2/51/57 13/52/58 10/47/59
f 10/47/59 13/52/58 18/48/60
s 3
f 19/12/12 13/34/38 20/14/14
f 20/14/14 13/34/38 14/33/37
s 5
f 20/20/20 14/38/42 21/22/22
f 21/22/22 14/38/42 15/37/41
s 7
f 16/42/48 22/29/30 15/37/47
f 15/37/47 22/29/30 21/22/29
s 2
f 23/8/8 22/7/7 17/45/51
f 17/45/51 22/7/7 16/43/49
s 8
f 17/50/56 18/48/54 23/31/35
f 23/31/35 18/48/54 24/17/33
s 4
f 18/48/60 13/52/58 24/17/17
f 24/17/17 13/52/58 19/15/15
g default
v -0.487293 0.882387 -0.664132
v -0.644378 1.264366 -0.385464
v -0.376051 0.896491 0.621722
v -0.578057 1.272775 0.381145
v -0.528331 1.124210 -0.662629
v -0.417089 1.138314 0.623225
vt 0.510574 0.459850
vt 0.511081 0.573625
vt 0.944440 0.422127
vt 0.944947 0.535902
vt 0.604600 0.670011
vt 0.863266 0.647521
vn 0.982095 0.167201 -0.086797
vn 0.938917 0.333510 -0.084886
vn 0.982095 0.167201 -0.086797
vn 0.951003 0.297116 -0.085532
vn 0.698016 0.712827 -0.068206
vn 0.698016 0.712827 -0.068206
s 1
g BeigeBag BeigeBagHangle01
f 25/53/61 29/54/62 27/55/63
f 27/55/63 29/54/62 30/56/64
f 29/54/62 26/57/65 30/56/64
f 30/56/64 26/57/65 28/58/66
g default
v 0.463534 0.988842 0.541256
v 0.881539 0.950560 0.290243
v 0.463534 0.988842 -0.701956
v 0.881539 0.950560 -0.450943
v 0.704656 1.033831 0.541256
v 0.704656 1.033831 -0.701956
vt 0.942445 0.454444
vt 0.942445 0.570859
vt 0.506714 0.454444
vt 0.506714 0.570859
vt 0.854468 0.662041
vt 0.594691 0.662041
vn -0.183418 0.983035 0.000000
vn -0.012838 0.999918 0.000000
vn -0.183418 0.983035 0.000000
vn -0.051082 0.998695 0.000000
vn 0.425932 0.904755 0.000000
vn 0.425932 0.904755 0.000000
s 1
g BeigeBag BeigeBagHangle02
f 31/59/67 35/60/68 33/61/69
f 33/61/69 35/60/68 36/62/70
f 35/60/68 32/63/71 36/62/70
f 36/62/70 32/63/71 34/64/72
