# This file uses centimeters as units for non-parametric coordinates.

mtllib FileCabinet.mtl
g default
v -0.500000 0.000000 0.500000
v 0.500000 0.000000 0.500000
v -0.500000 3.013730 0.500000
v 0.500000 3.013730 0.500000
v -0.500000 3.013730 -0.500000
v 0.500000 3.013730 -0.500000
v -0.500000 0.000000 -0.500000
v 0.500000 0.000000 -0.500000
vt 0.000000 0.000000
vt 0.235537 -0.000000
vt 0.235537 0.748895
vt -0.000000 0.748895
vt 0.235536 0.956892
vt -0.000001 0.956891
vt 0.468206 0.748895
vt 0.235537 0.748895
vt 0.235537 -0.000000
vt 0.468206 -0.000000
vt 0.262453 0.765458
vt 0.470450 0.765458
vt 0.470451 0.973455
vt 0.262453 0.973455
vt 0.460596 -0.000000
vt 0.460596 0.748895
vt 0.235537 -0.000000
vt 0.471791 -0.000000
vt 0.471791 0.748895
vt 0.235537 0.748895
vn 0.000000 0.000000 1.000000
vn 0.000000 0.000000 1.000000
vn 0.000000 0.000000 1.000000
vn 0.000000 0.000000 1.000000
vn 0.000000 1.000000 0.000000
vn 0.000000 1.000000 0.000000
vn 0.000000 1.000000 0.000000
vn 0.000000 1.000000 0.000000
vn 0.000000 0.000000 -1.000000
vn 0.000000 0.000000 -1.000000
vn 0.000000 0.000000 -1.000000
vn 0.000000 0.000000 -1.000000
vn 0.000000 -1.000000 0.000000
vn 0.000000 -1.000000 0.000000
vn 0.000000 -1.000000 0.000000
vn 0.000000 -1.000000 0.000000
vn 1.000000 0.000000 0.000000
vn 1.000000 0.000000 0.000000
vn 1.000000 0.000000 0.000000
vn 1.000000 0.000000 0.000000
vn -1.000000 0.000000 0.000000
vn -1.000000 0.000000 0.000000
vn -1.000000 0.000000 0.000000
vn -1.000000 0.000000 0.000000
s off
g FileCabinet:FileCabinet
usemtl FileCabinet:initialShadingGroup
f 1/1/1 2/2/2 4/3/3 3/4/4
f 3/4/5 4/3/6 6/5/7 5/6/8
f 5/7/9 6/8/10 8/9/11 7/10/12
f 7/11/13 8/12/14 2/13/15 1/14/16
f 2/2/17 8/15/18 6/16/19 4/3/20
f 7/17/21 1/18/22 3/19/23 5/20/24
