# This file uses centimeters as units for non-parametric coordinates.

mtllib PortableComputerTerminalScreen.mtl
g default
v 11.739895 0.210470 -0.044975
v 12.260104 0.210470 -0.044975
v 11.739895 0.507839 -0.136200
v 12.260104 0.507839 -0.136200
vt 0.024413 0.003449
vt 0.338809 0.003449
vt 0.024413 0.240419
vt 0.338809 0.240419
vn 0.000000 0.293285 0.956025
vn 0.000000 0.293285 0.956025
vn 0.000000 0.293285 0.956025
vn 0.000000 0.293285 0.956025
s off
g pPlane2
usemtl lambert9SG
f 1/1/1 2/2/2 4/4/3 3/3/4
