# This file uses centimeters as units for non-parametric coordinates.

mtllib SodaChip.mtl
g default
v -0.382334 -0.056836 0.382334
v 0.382334 -0.056836 0.382334
v -0.382334 0.056836 0.382334
v 0.382334 0.056836 0.382334
v -0.382334 0.056836 -0.382334
v 0.382334 0.056836 -0.382334
v -0.382334 -0.056836 -0.382334
v 0.382334 -0.056836 -0.382334
vt 0.138647 0.104674
vt 0.138647 0.104674
vt 0.087126 0.088293
vt 0.100485 0.142836
vt 0.100485 0.104674
vt 0.911707 0.912874
vt 0.087126 0.088293
vt 0.138647 0.142836
vt 0.087126 0.912874
vt 0.911707 0.912874
vt 0.138647 0.104674
vt 0.138647 0.142836
vt 0.100485 0.104674
vt 0.100485 0.142836
vt 0.087126 0.912874
vt 0.138647 0.104674
vt 0.100485 0.142836
vt 0.911707 0.088293
vt 0.100485 0.142836
vt 0.911707 0.088293
vt 0.100485 0.104674
vt 0.138647 0.142836
vt 0.100485 0.104674
vt 0.138647 0.142836
vn 0.000000 0.000000 1.000000
vn 0.000000 0.000000 1.000000
vn 0.000000 0.000000 1.000000
vn 0.000000 0.000000 1.000000
vn 0.000000 1.000000 0.000000
vn 0.000000 1.000000 0.000000
vn 0.000000 1.000000 0.000000
vn 0.000000 1.000000 0.000000
vn 0.000000 0.000000 -1.000000
vn 0.000000 0.000000 -1.000000
vn 0.000000 0.000000 -1.000000
vn 0.000000 0.000000 -1.000000
vn 0.000000 -1.000000 0.000000
vn 0.000000 -1.000000 0.000000
vn 0.000000 -1.000000 0.000000
vn 0.000000 -1.000000 0.000000
vn 1.000000 0.000000 0.000000
vn 1.000000 0.000000 0.000000
vn 1.000000 0.000000 0.000000
vn 1.000000 0.000000 0.000000
vn -1.000000 0.000000 0.000000
vn -1.000000 0.000000 0.000000
vn -1.000000 0.000000 0.000000
vn -1.000000 0.000000 0.000000
s off
g pCube42
usemtl lambert30SG
f 1/23/1 2/2/2 4/22/3 3/17/4
f 3/3/5 4/18/6 6/6/7 5/15/8
f 5/5/9 6/16/10 8/8/11 7/19/12
f 7/7/13 8/20/14 2/10/15 1/9/16
f 2/21/17 8/11/18 6/12/19 4/4/20
f 7/13/21 1/1/22 3/24/23 5/14/24
