# This file uses centimeters as units for non-parametric coordinates.

mtllib StealsBobo.mtl
g default
v -0.760718 0.370837 2.381875
v 0.759947 0.370837 2.381875
v 0.759945 0.913874 2.381875
v 0.550727 0.912889 2.381875
v 0.550727 0.575554 2.381875
v -0.551496 0.575554 2.381875
v -0.551496 0.907698 2.381875
v -0.760716 0.906713 2.381875
v -0.760717 1.616164 1.247706
v -0.760718 0.370837 1.247706
v 0.759947 0.370837 1.247706
v 0.759946 1.623326 1.247706
v -0.551496 1.616164 1.249281
v 0.550727 1.616164 1.257580
v -1.007610 2.422295 1.247706
v -1.247706 0.000000 1.247706
v 1.247706 0.000000 1.247706
v 1.006589 2.432598 1.247706
v -1.247706 0.000000 -4.520534
v -0.831299 4.201080 0.276072
v -0.831299 4.201080 -4.520534
v 1.247706 0.000000 -4.520534
v 0.831299 4.201080 -4.520534
v 0.831299 4.201080 0.280720
v -0.000390 1.095864 -0.966934
v -0.000379 1.095864 -0.966934
v -0.000379 1.095854 -0.966934
v -0.000390 1.095854 -0.966934
vt 0.927580 0.685234
vt 0.927580 0.771492
vt 0.745018 0.685234
vt 0.745018 0.885689
vt 0.926051 0.686767
vt 0.744514 0.686767
vt 0.926051 0.773686
vt 0.744514 0.887242
vt 0.972170 0.626246
vt 0.495747 0.627092
vt 0.972170 0.123340
vt 0.770628 0.021430
vt 0.495747 0.021378
vt 0.497905 0.021916
vt 0.497904 0.622059
vt 0.771487 0.021865
vt 0.970685 0.622892
vt 0.970685 0.122589
vt 0.005619 0.958594
vt 0.005619 0.910025
vt 0.488261 0.883967
vt 0.167493 0.808769
vt 0.488261 0.883966
vt 0.004623 0.959472
vt 0.488261 0.883967
vt 0.004623 0.911454
vt 0.488261 0.883966
vt 0.168359 0.809034
vt 0.975442 0.736788
vt 0.937318 0.736579
vt 0.975520 0.637834
vt 0.004623 0.993733
vt 0.937366 0.675108
vt 0.002891 0.778469
vt 0.698417 0.637616
vt 0.736513 0.674951
vt 0.785385 0.970292
vt 0.785385 0.949309
vt 0.760058 0.970292
vt 0.760058 0.949309
vt 0.848664 0.974979
vt 0.848664 0.867119
vt 0.801875 0.974980
vt 0.801875 0.867119
vt 0.655792 0.647810
vt 0.655792 0.989709
vt 0.531194 0.648141
vt 0.531194 0.989709
vt 0.467200 0.886100
vt 0.005619 0.777591
vt 0.473195 0.885224
vt 0.005620 0.992855
vt 0.698341 0.735266
vt 0.736466 0.735476
vt 0.133039 0.270658
vt 0.735736 0.978913
vt 0.389946 0.271809
vt 0.936593 0.978233
vt 0.091328 0.400220
vt 0.050765 0.010909
vt 0.133039 0.070509
vt 0.389946 0.070509
vt 0.472349 0.010909
vt 0.431614 0.401875
vt 0.121115 0.779650
vt 0.402000 0.779650
vt 0.925668 0.979982
vt 0.915782 0.866956
vt 0.866427 0.979982
vt 0.876313 0.866956
vt 0.974712 0.980565
vt 0.697610 0.979042
vt 0.004623 0.911454
vt 0.005619 0.910025
vn 0.000000 0.000000 1.000000
vn 0.000000 0.000000 1.000000
vn 0.000000 0.000000 1.000000
vn 0.000000 0.000000 1.000000
vn 0.000000 0.000000 1.000000
vn 0.000000 0.000000 1.000000
vn 0.000000 0.000000 1.000000
vn 0.000000 0.000000 1.000000
vn -0.003992 0.847791 0.530315
vn -0.003993 0.847791 0.530315
vn -0.003994 0.847791 0.530315
vn -0.003993 0.847791 0.530316
vn -0.003993 0.847791 0.530315
vn -0.003993 0.847792 0.530314
vn -0.003993 0.847791 0.530315
vn -0.003993 0.847791 0.530315
vn -1.000000 0.000003 0.000000
vn -1.000000 0.000002 0.000001
vn -1.000000 0.000001 0.000001
vn -1.000000 0.000001 0.000001
vn 0.000000 -1.000000 0.000000
vn 0.000000 -1.000000 0.000000
vn 0.000000 -1.000000 0.000000
vn 0.000000 -1.000000 0.000000
vn 1.000000 0.000003 0.000000
vn 1.000000 0.000001 0.000001
vn 1.000000 0.000002 0.000001
vn 1.000000 0.000001 0.000001
vn 0.000000 0.000000 1.000000
vn 0.000000 0.000000 1.000000
vn 0.000000 0.000000 1.000000
vn 0.000000 0.000000 1.000000
vn 0.000000 0.000000 1.000000
vn 0.000000 0.000000 1.000000
vn 0.000000 0.000000 1.000000
vn 0.000000 0.000000 1.000000
vn 0.000000 0.000000 1.000000
vn 0.000000 0.000000 1.000000
vn 0.000000 0.000000 1.000000
vn 0.000000 0.000000 1.000000
vn 0.000000 0.000000 1.000000
vn -0.000000 0.000000 1.000000
vn -0.000000 0.000000 1.000000
vn -0.000000 0.000000 1.000000
vn 0.000000 -1.000000 0.000000
vn 0.000000 -1.000000 0.000000
vn 0.000000 -1.000000 0.000000
vn 0.000000 -1.000000 0.000000
vn -0.002453 0.479565 0.877503
vn -0.002453 0.479565 0.877503
vn -0.002453 0.479565 0.877503
vn -0.002453 0.479566 0.877503
vn 0.000000 0.000000 -1.000000
vn 0.000000 0.000000 -1.000000
vn 0.000000 0.000000 -1.000000
vn 0.000000 0.000000 -1.000000
vn 0.000000 1.000000 0.000000
vn 0.000000 1.000000 0.000000
vn 0.000000 1.000000 0.000000
vn 0.000000 1.000000 0.000000
vn 0.000000 -0.974472 0.224511
vn -0.001718 -0.973625 0.228150
vn -0.000865 -0.993384 0.114835
vn -0.000865 -0.993384 0.114835
vn 0.000000 0.000000 0.000000
vn 0.000000 0.000000 0.000000
vn 0.000000 0.000000 0.000000
vn 0.000000 0.000000 0.000000
vn 0.000000 0.988316 0.152419
vn 0.000000 0.988145 0.153527
vn 0.000000 0.997032 0.076992
vn 0.000000 0.997032 0.076992
vn -0.995124 0.098636 0.000000
vn -0.995124 0.098636 -0.000000
vn -0.995124 0.098636 -0.000000
vn -0.995124 0.098636 -0.000000
vn -0.995124 0.098636 0.000000
vn 0.995124 0.098636 0.000000
vn 0.995124 0.098636 -0.000000
vn 0.995124 0.098636 -0.000000
vn 0.995124 0.098636 0.000000
vn 0.995124 0.098636 -0.000000
vn -0.996677 0.000000 0.081463
vn -0.994988 0.054234 0.084008
vn -0.986728 0.000000 0.162384
vn -0.946774 0.272900 0.170720
vn -0.986602 0.138314 0.086519
vn 0.996677 0.000000 0.081463
vn 0.986728 0.000000 0.162383
vn 0.994941 0.054927 0.084119
vn 0.946506 0.273566 0.171136
vn 0.986534 0.138661 0.086736
s 1
g polySurface135
usemtl lambert31SG
f 3/29/1 4/30/2 2/31/3
f 4/30/2 5/33/4 2/31/3
f 2/31/3 5/33/4 1/35/5
f 5/33/4 6/36/6 1/35/5
f 1/35/5 6/36/6 8/53/7
f 6/36/6 7/54/8 8/53/7
s 2
f 8/53/9 7/54/10 9/72/11
f 7/54/10 13/56/12 9/72/11
f 9//11 13//12 12//13
f 13//12 14//14 12//13
f 12/71/13 14/58/14 3/29/15
f 3/29/15 14/58/14 4/30/16
s 3
f 1/1/17 8/2/18 10/3/19
f 10/3/19 8/2/18 9/4/20
s 4
f 1/37/21 10/38/22 2/39/23
f 2/39/23 10/38/22 11/40/24
s 5
f 2/5/25 11/6/26 3/7/27
f 3/7/27 11/6/26 12/8/28
s 6
f 15/59/29 16/60/30 9/55/31
f 9/55/31 16/60/30 10/61/32
s 7
f 10/61/33 16/60/34 11/62/35
f 11/62/35 16/60/34 17/63/36
s 8
f 11/62/37 17/63/38 12/57/39
f 12/57/39 17/63/38 18/64/40
s 9
f 9/55/41 12/57/42 15/59/43
f 15/59/43 12/57/42 18/64/44
s 10
f 16/41/45 19/42/46 17/43/47
f 17/43/47 19/42/46 22/44/48
s 11
f 15/59/49 18/64/50 20/65/51
f 20/65/51 18/64/50 24/66/52
s 12
f 19/67/53 21/68/54 22/69/55
f 22/69/55 21/68/54 23/70/56
s 13
f 24/45/57 23/46/58 20/47/59
f 20/47/59 23/46/58 21/48/60
s 14
f 25//61 26//62 13//63
f 13/32/63 26/49/62 14/34/64
s 15
f 25//65 28//66 26//67
f 26//67 28//66 27//68
s 16
f 27//69 28//70 5//71
f 5/50/71 28/51/70 6/52/72
s 17
f 21/9/73 19/10/74 20/11/75
f 20/11/75 19/10/74 15/12/76
f 15/12/76 19/10/74 16/13/77
s 18
f 17/14/78 22/15/79 18/16/80
f 23/17/81 24/18/82 22/15/79
f 22/15/79 24/18/82 18/16/80
s 19
f 5/19/83 4/74/84 27/21/85
f 27//85 4//84 26//86
f 4/20/84 14/22/87 26/23/86
s 20
f 6/24/88 28/25/89 7/26/90
f 28//89 25//91 7//90
f 25/27/91 13/28/92 7/73/90
