# This file uses centimeters as units for non-parametric coordinates.

mtllib ComputerTerminal.mtl
g default
v 5.700329 0.420071 0.073232
v 6.299671 0.420071 0.073232
v 5.700329 0.809152 0.073232
v 6.299671 0.809152 0.073232
v 5.791356 0.690967 -0.408613
v 6.208644 0.690967 -0.408613
v 5.791356 0.420071 -0.408613
v 6.208644 0.420071 -0.408613
v 5.717116 0.764995 -0.197965
v 5.717116 0.420071 -0.197965
v 6.282884 0.420071 -0.197965
v 6.282884 0.764995 -0.197965
v 5.834322 0.380480 -0.002020
v 5.834322 0.380480 -0.342217
v 6.165678 0.380480 -0.342217
v 6.165678 0.380480 -0.002020
v 5.539815 0.380480 -0.500000
v 6.460185 0.380480 -0.500000
v 5.539815 0.380480 0.163183
v 6.460185 0.380480 0.163183
v 5.507864 0.075150 -0.500000
v 5.528845 -0.000000 -0.500000
v 5.528845 -0.000000 0.487273
v 5.507864 0.075150 0.500000
v 5.526354 0.251836 0.177790
v 6.492136 0.075150 -0.500000
v 6.471155 0.000000 -0.500000
v 6.471155 0.000000 0.487273
v 6.492136 0.075150 0.500000
v 6.473646 0.251836 0.177790
vt 0.024117 0.003317
vt 0.341922 0.003317
vt 0.341922 0.254281
vt 0.024117 0.254281
vt 0.965730 0.272154
vt 0.958072 0.354521
vt 0.434426 0.354521
vt 0.426767 0.272154
vt 0.976250 0.078476
vt 0.416247 0.078476
vt 0.428184 0.016245
vt 0.964313 0.016245
vt 0.453345 0.695451
vt 0.562752 0.695451
vt 0.562752 0.867421
vt 0.453345 0.889436
vt 0.878764 0.695451
vt 0.988170 0.695451
vt 0.988170 0.889436
vt 0.878764 0.867421
vt 0.793783 0.695451
vt 0.793783 0.830512
vt 0.647732 0.695451
vt 0.647732 0.830512
vt 0.004326 0.312316
vt 0.004326 0.277184
vt 0.377780 0.277184
vt 0.382595 0.312316
vt 0.260713 0.394914
vt 0.004326 0.455054
vt 0.255187 0.455054
vt 0.382594 0.516482
vt 0.004326 0.516482
vt 0.009140 0.481350
vt 0.382594 0.481350
vt 0.126208 0.599081
vt 0.382594 0.659220
vt 0.131733 0.659220
vt 0.715908 0.668711
vt 0.727091 0.516482
vt 0.382594 0.516482
vt 0.393777 0.668711
vt 0.719748 0.479014
vt 0.389937 0.479014
vt 0.825643 0.991478
vt 0.615872 0.991478
vt 0.621748 0.900882
vt 0.819768 0.900882
vt 0.916115 0.580027
vt 0.971158 0.580027
vt 0.965491 0.571667
vt 0.921782 0.571667
vt 0.906322 0.553506
vt 0.921782 0.528837
vt 0.980951 0.553506
vt 0.965491 0.528837
vt 0.904108 0.519362
vt 0.983166 0.519362
vt 0.133650 0.922717
vt 0.275333 0.922717
vt 0.401259 0.987110
vt 0.007724 0.987110
vt 0.133650 0.783879
vt 0.007724 0.716458
vt 0.275333 0.783879
vt 0.401259 0.716458
vt 0.981973 0.506822
vt 0.981973 0.385947
vt 0.861098 0.385947
vt 0.861098 0.506822
vn 0.000000 0.000000 1.000000
vn 0.000000 0.000000 1.000000
vn 0.000000 0.000000 1.000000
vn 0.000000 0.000000 1.000000
vn 0.000000 0.987002 -0.160706
vn 0.000000 0.987002 -0.160706
vn 0.000000 0.975431 -0.220306
vn 0.000000 0.975431 -0.220306
vn 0.000000 0.000000 -1.000000
vn 0.000000 0.000000 -1.000000
vn 0.000000 0.000000 -1.000000
vn 0.000000 0.000000 -1.000000
vn 0.998090 0.000000 -0.061782
vn 0.984773 0.000000 -0.173844
vn 0.988218 0.000000 -0.153051
vn 0.998090 0.000000 -0.061782
vn -0.984773 0.000000 -0.173844
vn -0.998090 0.000000 -0.061782
vn -0.998090 0.000000 -0.061782
vn -0.988218 0.000000 -0.153051
vn -0.943140 0.000000 -0.332397
vn -0.943140 0.000000 -0.332397
vn 0.943140 0.000000 -0.332397
vn 0.943140 0.000000 -0.332397
vn 0.000000 0.943436 -0.331555
vn 0.000000 0.943436 -0.331555
vn 0.000000 -0.858901 -0.512142
vn 0.000000 -0.858901 -0.512142
vn 0.000000 -0.858901 -0.512142
vn 0.000000 -0.858901 -0.512142
vn -0.326279 -0.945159 -0.014740
vn -0.414623 -0.905698 -0.088312
vn -0.300922 -0.953565 -0.012668
vn 0.504165 -0.845130 -0.177687
vn 0.504165 -0.845130 -0.177687
vn 0.504165 -0.845130 -0.177687
vn -0.292656 -0.956046 -0.018115
vn 0.292656 -0.956046 -0.018114
vn 0.292656 -0.956046 -0.018114
vn 0.292656 -0.956046 -0.018114
vn 0.000000 -0.884995 0.465601
vn 0.000000 -0.884995 0.465601
vn 0.000000 -0.884995 0.465601
vn 0.000000 -0.884995 0.465601
vn -0.000000 1.000000 -0.000000
vn 0.000000 1.000000 -0.000000
vn 0.000000 1.000000 -0.000000
vn -0.000000 1.000000 -0.000000
vn -0.000000 1.000000 0.000000
vn -0.000000 1.000000 0.000000
vn 0.000000 1.000000 0.000000
vn 0.000000 1.000000 0.000000
vn -0.998293 -0.058402 0.000000
vn -0.963167 -0.268903 0.000000
vn -0.963167 -0.268903 0.000000
vn -0.986647 -0.162874 0.000000
vn -0.994570 0.104075 0.000000
vn -0.994569 0.104079 0.000000
vn -0.994570 0.104072 0.000000
vn 0.998293 -0.058404 0.000000
vn 0.986647 -0.162874 0.000000
vn 0.963167 -0.268903 0.000000
vn 0.963167 -0.268903 0.000000
vn 0.000000 -0.000000 -1.000000
vn 0.000000 -0.000000 -1.000000
vn 0.000000 -0.000000 -1.000000
vn 0.000000 -0.000000 -1.000000
vn 0.000000 -1.000000 0.000000
vn 0.000000 -1.000000 0.000000
vn 0.000000 -1.000000 0.000000
vn 0.000000 -1.000000 0.000000
vn 0.000000 0.112825 0.993615
vn 0.000000 0.112825 0.993615
vn 0.000000 0.112825 0.993615
vn 0.000000 0.112825 0.993615
vn 0.000000 0.876824 0.480812
vn 0.000000 0.876824 0.480812
vn 0.000000 0.876824 0.480812
vn 0.000000 0.876824 0.480812
vn 0.000000 0.000000 -1.000000
vn 0.000000 0.000000 -1.000000
vn 0.000000 -0.166982 0.985960
vn 0.000000 -0.166982 0.985960
vn 0.000000 -0.166982 0.985960
vn 0.000000 -0.166982 0.985960
vn 0.994570 0.104074 0.000000
vn 0.994569 0.104075 0.000000
vn 0.994570 0.104072 0.000000
vn -0.504166 -0.845129 -0.177688
vn 0.320021 -0.947411 0.000000
vn 0.320021 -0.947411 0.000000
vn 0.320021 -0.947411 0.000000
s off
g pCube2
usemtl lambert8SG
f 1/1/1 2/2/2 4/3/3 3/4/4
s 1
f 3/45/5 4/46/6 12/47/7 9/48/8
s off
f 5/22/9 6/24/10 8/23/11 7/21/12
s 2
f 2/13/13 11/14/14 12/15/15 4/16/16
s 3
f 10/17/17 1/18/18 3/19/19 9/20/20
f 7/21/21 10/17/17 9/20/20 5/22/22
s 2
f 12/15/15 11/14/14 8/23/23 6/24/24
s 1
f 9/48/8 12/47/7 6/24/25 5/22/26
s off
f 7/49/27 8/50/28 15/51/29 14/52/30
s 4
f 10/53/31 14/52/32 13/54/33
s off
f 8/50/34 11/55/35 15/51/36
s 4
f 1/57/37 10/53/31 13/54/33
s off
f 11/55/38 2/58/39 16/56/40
f 2/58/41 1/57/42 13/54/43 16/56/44
s 5
f 14/59/45 15/60/46 18/61/47 17/62/48
f 13/63/49 14/59/45 17/62/48 19/64/50
f 15/60/46 16/65/51 20/66/52 18/61/47
f 16/65/51 13/63/49 19/64/50 20/66/52
s 6
f 21/25/53 22/26/54 23/27/55 24/28/56
f 21/25/53 24/28/56 25/29/57
f 17/30/58 25/29/57 19/31/59
f 21/25/53 25/29/57 17/30/58
s 7
f 26/32/60 29/33/61 28/34/62 27/35/63
s 8
f 18/39/64 26/40/65 21/41/66 17/42/67
s off
f 27/67/68 28/68/69 23/69/70 22/70/71
f 30/5/72 20/6/73 19/7/74 25/8/75
f 29/9/76 30/5/77 25/8/78 24/10/79
s 8
f 26/40/65 27/43/80 22/44/81 21/41/66
s off
f 29/9/82 24/10/83 23/11/84 28/12/85
s 7
f 26/32/60 30/36/86 29/33/61
f 18/37/87 20/38/88 30/36/86
f 26/32/60 18/37/87 30/36/86
s 4
f 10/53/31 7/49/89 14/52/32
s off
f 15/51/90 11/55/91 16/56/92
