# This file uses centimeters as units for non-parametric coordinates.

mtllib CafeteriaTable.mtl
g default
v -2.139432 -0.000000 0.049657
v 2.139432 -0.000000 0.049657
v -2.139432 0.469294 0.049657
v 2.139432 0.469294 0.049657
v -2.139432 0.469294 -0.049657
v 2.139432 0.469294 -0.049657
v -2.139432 -0.000000 -0.049657
v 2.139432 -0.000000 -0.049657
v 1.481635 0.227807 -0.049657
v 1.481635 0.227807 0.049657
v 0.317784 0.227807 -0.049657
v -0.000000 -0.000000 -0.049657
v -0.000000 -0.000000 0.049657
v 0.317784 0.227807 0.049657
v -0.317784 0.227807 -0.049657
v -0.317784 0.227807 0.049657
v -1.481635 0.227807 -0.049657
v -1.481635 0.227807 0.049657
v -2.139432 0.960124 0.049657
v -1.481635 0.960124 0.049657
v -1.481635 0.960124 -0.049657
v -2.139432 0.960124 -0.049657
v 1.481635 0.960124 0.049657
v 1.481635 0.960124 -0.049657
v 2.139432 0.960124 0.049657
v 2.139432 0.960124 -0.049657
v -0.317784 1.894484 0.049657
v -0.317784 1.894484 -0.049657
v 0.317784 1.894484 0.049657
v 0.317784 1.894484 -0.049657
v -2.139432 -0.000000 -2.950343
v 2.139432 -0.000000 -2.950343
v -2.139432 0.469294 -2.950343
v 2.139432 0.469294 -2.950343
v -2.139432 0.469294 -3.049657
v 2.139432 0.469294 -3.049657
v -2.139432 -0.000000 -3.049657
v 2.139432 -0.000000 -3.049657
v 1.481635 0.227807 -3.049657
v 1.481635 0.227807 -2.950343
v 0.317784 0.227807 -3.049657
v -0.000000 -0.000000 -3.049657
v -0.000000 -0.000000 -2.950343
v 0.317784 0.227807 -2.950343
v -0.317784 0.227807 -3.049657
v -0.317784 0.227807 -2.950343
v -1.481635 0.227807 -3.049657
v -1.481635 0.227807 -2.950343
v -2.139432 0.960124 -2.950343
v -1.481635 0.960124 -2.950343
v -1.481635 0.960124 -3.049657
v -2.139432 0.960124 -3.049657
v 1.481635 0.960124 -2.950343
v 1.481635 0.960124 -3.049657
v 2.139432 0.960124 -2.950343
v 2.139432 0.960124 -3.049657
v -0.317784 1.894484 -2.950343
v -0.317784 1.894484 -3.049657
v 0.317784 1.894484 -2.950343
v 0.317784 1.894484 -3.049657
v -2.139432 -0.000000 3.049657
v 2.139432 -0.000000 3.049657
v -2.139432 0.469294 3.049657
v 2.139432 0.469294 3.049657
v -2.139432 0.469294 2.950343
v 2.139432 0.469294 2.950343
v -2.139432 -0.000000 2.950343
v 2.139432 -0.000000 2.950343
v 1.481635 0.227807 2.950343
v 1.481635 0.227807 3.049657
v 0.317784 0.227807 2.950343
v -0.000000 -0.000000 2.950343
v -0.000000 -0.000000 3.049657
v 0.317784 0.227807 3.049657
v -0.317784 0.227807 2.950343
v -0.317784 0.227807 3.049657
v -1.481635 0.227807 2.950343
v -1.481635 0.227807 3.049657
v -2.139432 0.960124 3.049657
v -1.481635 0.960124 3.049657
v -1.481635 0.960124 2.950343
v -2.139432 0.960124 2.950343
v 1.481635 0.960124 3.049657
v 1.481635 0.960124 2.950343
v 2.139432 0.960124 3.049657
v 2.139432 0.960124 2.950343
v -0.317784 1.894484 3.049657
v -0.317784 1.894484 2.950343
v 0.317784 1.894484 3.049657
v 0.317784 1.894484 2.950343
v -1.420083 1.894484 3.674623
v 1.420083 1.894484 3.674623
v -1.420083 1.992686 3.674623
v 1.420083 1.992686 3.674623
v -1.420083 1.992686 -3.674624
v 1.420083 1.992686 -3.674624
v -1.420083 1.894484 -3.674624
v 1.420083 1.894484 -3.674624
v -2.200608 0.960124 3.674623
v -1.420083 0.960124 3.674623
v -2.200608 1.058326 3.674623
v -1.420083 1.058326 3.674623
v -2.200608 1.058326 -3.674624
v -1.420083 1.058326 -3.674624
v -2.200608 0.960124 -3.674624
v -1.420083 0.960124 -3.674624
v 1.420083 0.960124 3.674623
v 2.200608 0.960124 3.674623
v 1.420083 1.058326 3.674623
v 2.200608 1.058326 3.674623
v 1.420083 1.058326 -3.674624
v 2.200608 1.058326 -3.674624
v 1.420083 0.960124 -3.674624
v 2.200608 0.960124 -3.674624
vt 0.033856 0.738058
vt 0.118534 0.795442
vt 0.033856 0.795442
vt 0.033856 0.855458
vt 0.118534 0.855458
vt 0.118534 0.855458
vt 0.033856 0.855458
vt 0.033856 0.795442
vt 0.118534 0.795442
vt 0.033856 0.738058
vt 0.584675 0.738058
vt 0.584675 0.738058
vt 0.584675 0.795442
vt 0.584675 0.795442
vt 0.499998 0.795442
vt 0.499998 0.795442
vt 0.499998 0.855458
vt 0.499998 0.855458
vt 0.584675 0.855458
vt 0.584675 0.855458
vt 0.364347 0.795442
vt 0.309264 0.738058
vt 0.309264 0.738058
vt 0.364347 0.795442
vt 0.254183 0.795442
vt 0.254183 0.795442
vt 0.254183 0.969711
vt 0.254183 0.969711
vt 0.364347 0.969711
vt 0.364347 0.969711
vt 0.033856 0.738058
vt 0.118534 0.795442
vt 0.033856 0.795442
vt 0.033856 0.855458
vt 0.118534 0.855458
vt 0.118534 0.855458
vt 0.033856 0.855458
vt 0.033856 0.795442
vt 0.118534 0.795442
vt 0.033856 0.738058
vt 0.584675 0.738058
vt 0.584675 0.738058
vt 0.584675 0.795442
vt 0.584675 0.795442
vt 0.499998 0.795442
vt 0.499998 0.795442
vt 0.499998 0.855458
vt 0.499998 0.855458
vt 0.584675 0.855458
vt 0.584675 0.855458
vt 0.364347 0.795442
vt 0.309264 0.738058
vt 0.309264 0.738058
vt 0.364347 0.795442
vt 0.254183 0.795442
vt 0.254183 0.795442
vt 0.254183 0.969711
vt 0.254183 0.969711
vt 0.364347 0.969711
vt 0.364347 0.969711
vt 0.033856 0.738058
vt 0.118534 0.795442
vt 0.033856 0.795442
vt 0.033856 0.855458
vt 0.118534 0.855458
vt 0.118534 0.855458
vt 0.033856 0.855458
vt 0.033856 0.795442
vt 0.118534 0.795442
vt 0.033856 0.738058
vt 0.584675 0.738058
vt 0.584675 0.738058
vt 0.584675 0.795442
vt 0.584675 0.795442
vt 0.499998 0.795442
vt 0.499998 0.795442
vt 0.499998 0.855458
vt 0.499998 0.855458
vt 0.584675 0.855458
vt 0.584675 0.855458
vt 0.364347 0.795442
vt 0.309264 0.738058
vt 0.309264 0.738058
vt 0.364347 0.795442
vt 0.254183 0.795442
vt 0.254183 0.795442
vt 0.254183 0.969711
vt 0.254183 0.969711
vt 0.364347 0.969711
vt 0.364347 0.969711
vt 0.000000 0.127640
vt 0.295927 0.127640
vt 0.295927 0.146838
vt 0.000000 0.146838
vt 0.677698 0.276287
vt 0.677698 0.602472
vt 0.000000 0.602472
vt 0.000000 0.276287
vt 0.000000 0.127640
vt 0.295927 0.127640
vt 0.295927 0.108442
vt 0.000000 0.108442
vt 0.743972 0.992704
vt 0.939084 0.992704
vt 0.939084 0.589523
vt 0.743972 0.589523
vt 0.000000 0.029701
vt 0.994700 0.029701
vt 0.994700 0.044551
vt 0.000000 0.044551
vt 0.994700 0.044551
vt 0.000000 0.044551
vt 0.000000 0.059402
vt 0.994700 0.059402
vt 0.279269 0.089102
vt 0.418903 0.089102
vt 0.418903 0.108442
vt 0.279269 0.108442
vt 0.677698 0.186645
vt 0.677698 0.276287
vt 0.000000 0.276287
vt 0.000000 0.186645
vt 0.139634 0.108442
vt 0.279269 0.108442
vt 0.279269 0.089102
vt 0.139634 0.089102
vt 0.690352 0.992704
vt 0.743972 0.992704
vt 0.743972 0.589523
vt 0.690352 0.589523
vt 0.000000 0.014850
vt 0.994700 0.014850
vt 0.994700 0.029701
vt 0.000000 0.029701
vt 0.994700 0.000000
vt 0.000000 0.000000
vt 0.000000 0.014850
vt 0.994700 0.014850
vt 0.418903 0.089102
vt 0.558537 0.089102
vt 0.558537 0.108442
vt 0.418903 0.108442
vt 0.677698 0.602472
vt 0.677698 0.692113
vt 0.000000 0.692113
vt 0.000000 0.602472
vt 0.000000 0.108442
vt 0.139634 0.108442
vt 0.139634 0.089102
vt 0.000000 0.089102
vt 0.939084 0.992704
vt 0.992704 0.992704
vt 0.992704 0.589523
vt 0.939084 0.589523
vt 0.000000 0.059402
vt 0.994700 0.059402
vt 0.994700 0.074252
vt 0.000000 0.074252
vt 0.994700 0.074252
vt 0.000000 0.074252
vt 0.000000 0.089102
vt 0.994700 0.089102
vn 0.000000 0.000000 1.000000
vn 0.000000 0.000000 1.000000
vn 0.000000 0.000000 1.000000
vn 0.000000 1.000000 0.000000
vn 0.000000 1.000000 0.000000
vn 0.000000 1.000000 0.000000
vn 0.000000 1.000000 0.000000
vn 0.000000 0.000000 -1.000000
vn 0.000000 0.000000 -1.000000
vn 0.000000 0.000000 -1.000000
vn 1.000000 0.000000 0.000000
vn 1.000000 0.000000 0.000000
vn 1.000000 0.000000 0.000000
vn 1.000000 0.000000 0.000000
vn -1.000000 -0.000000 0.000000
vn -1.000000 -0.000000 0.000000
vn -1.000000 -0.000000 0.000000
vn -1.000000 -0.000000 0.000000
vn 0.000000 0.000000 -1.000000
vn 0.000000 0.000000 -1.000000
vn 0.000000 0.000000 -1.000000
vn 0.000000 0.000000 1.000000
vn 0.000000 0.000000 1.000000
vn 0.000000 0.000000 1.000000
vn 0.000000 1.000000 0.000000
vn 0.000000 1.000000 0.000000
vn 0.000000 1.000000 0.000000
vn 0.000000 1.000000 0.000000
vn 0.000000 0.000000 -1.000000
vn 0.000000 0.000000 -1.000000
vn 0.000000 -1.000000 0.000000
vn 0.000000 -1.000000 0.000000
vn 0.000000 -1.000000 0.000000
vn 0.000000 -1.000000 0.000000
vn 0.000000 0.000000 1.000000
vn 0.000000 0.000000 1.000000
vn 0.000000 1.000000 0.000000
vn 0.000000 1.000000 0.000000
vn 0.000000 1.000000 0.000000
vn 0.000000 1.000000 0.000000
vn 0.000000 0.000000 -1.000000
vn 0.000000 0.000000 1.000000
vn 0.000000 1.000000 0.000000
vn 0.000000 1.000000 0.000000
vn 0.000000 1.000000 0.000000
vn 0.000000 1.000000 0.000000
vn 0.000000 -1.000000 0.000000
vn 0.000000 -1.000000 0.000000
vn 0.000000 1.000000 0.000000
vn 0.000000 1.000000 0.000000
vn 0.000000 1.000000 0.000000
vn 0.000000 1.000000 0.000000
vn 0.000000 0.000000 1.000000
vn 0.000000 0.000000 1.000000
vn 0.000000 0.000000 1.000000
vn 0.000000 0.000000 1.000000
vn 1.000000 0.000000 0.000000
vn 1.000000 0.000000 0.000000
vn 1.000000 0.000000 0.000000
vn 1.000000 0.000000 0.000000
vn 0.000000 0.000000 -1.000000
vn 0.000000 0.000000 -1.000000
vn 0.000000 0.000000 -1.000000
vn 0.000000 0.000000 -1.000000
vn -1.000000 0.000000 0.000000
vn -1.000000 0.000000 0.000000
vn -1.000000 0.000000 0.000000
vn -1.000000 0.000000 0.000000
vn -1.000000 0.000000 0.000000
vn -1.000000 0.000000 0.000000
vn -1.000000 0.000000 0.000000
vn -1.000000 0.000000 0.000000
vn 0.000000 0.000000 1.000000
vn 0.000000 0.000000 1.000000
vn 0.000000 0.000000 1.000000
vn 0.000000 0.000000 1.000000
vn 1.000000 0.000000 0.000000
vn 1.000000 0.000000 0.000000
vn 1.000000 0.000000 0.000000
vn 1.000000 0.000000 0.000000
vn 0.000000 0.000000 -1.000000
vn 0.000000 0.000000 -1.000000
vn 0.000000 0.000000 -1.000000
vn 0.000000 0.000000 -1.000000
vn -1.000000 0.000000 0.000000
vn -1.000000 0.000000 0.000000
vn -1.000000 0.000000 0.000000
vn -1.000000 0.000000 0.000000
vn 0.000000 0.000000 1.000000
vn 0.000000 0.000000 1.000000
vn 0.000000 0.000000 1.000000
vn 0.000000 0.000000 1.000000
vn 1.000000 0.000000 0.000000
vn 1.000000 0.000000 0.000000
vn 1.000000 0.000000 0.000000
vn 1.000000 0.000000 0.000000
vn 0.000000 0.000000 -1.000000
vn 0.000000 0.000000 -1.000000
vn 0.000000 0.000000 -1.000000
vn 0.000000 0.000000 -1.000000
vn 0.000000 0.000000 1.000000
vn 0.000000 0.000000 1.000000
vn 0.000001 0.000000 1.000000
vn 0.000000 1.000000 0.000000
vn 0.000000 1.000000 0.000000
vn 0.000000 1.000000 0.000000
vn 0.000000 1.000000 0.000000
vn 0.000000 0.000000 -1.000000
vn 0.000000 0.000000 -1.000000
vn 0.000000 0.000000 -1.000000
vn 1.000000 0.000000 0.000000
vn 1.000000 0.000000 0.000000
vn 1.000000 0.000000 0.000000
vn 1.000000 0.000000 0.000000
vn -1.000000 0.000000 0.000000
vn -1.000000 0.000000 0.000000
vn -1.000000 0.000000 0.000000
vn -1.000000 0.000000 0.000000
vn 0.000000 0.000000 -1.000000
vn 0.000000 0.000000 -1.000000
vn 0.000000 0.000000 -1.000000
vn -0.000000 0.000000 1.000000
vn -0.000000 0.000000 1.000000
vn -0.000000 0.000000 1.000000
vn 0.000000 1.000000 0.000000
vn 0.000000 1.000000 0.000000
vn 0.000000 1.000000 0.000000
vn 0.000000 1.000000 0.000000
vn 0.000000 0.000000 -1.000000
vn 0.000000 0.000000 -1.000000
vn 0.000000 -1.000000 0.000000
vn 0.000000 -1.000000 0.000000
vn 0.000000 -1.000000 0.000000
vn 0.000000 -1.000000 0.000000
vn 0.000000 0.000000 1.000000
vn 0.000000 0.000000 1.000000
vn 0.000000 1.000000 0.000000
vn 0.000000 1.000000 0.000000
vn 0.000000 1.000000 0.000000
vn 0.000000 1.000000 0.000000
vn 0.000000 0.000000 -1.000000
vn 0.000000 0.000000 1.000000
vn 0.000000 1.000000 0.000000
vn 0.000000 1.000000 0.000000
vn 0.000000 1.000000 0.000000
vn 0.000000 1.000000 0.000000
vn 0.000000 -1.000000 0.000000
vn 0.000000 -1.000000 0.000000
vn 0.000000 1.000000 0.000000
vn 0.000000 1.000000 0.000000
vn 0.000000 1.000000 0.000000
vn 0.000000 1.000000 0.000000
vn -0.000000 0.000000 1.000000
vn -0.000000 0.000000 1.000000
vn -0.000000 0.000000 1.000000
vn -0.000000 0.000000 1.000000
vn 1.000000 0.000000 0.000000
vn 1.000000 0.000000 0.000000
vn 1.000000 0.000000 0.000000
vn 1.000000 0.000000 0.000000
vn 0.000000 0.000000 -1.000000
vn 0.000000 0.000000 -1.000000
vn 0.000000 0.000000 -1.000000
vn 0.000000 0.000000 -1.000000
vn -1.000000 0.000000 0.000000
vn -1.000000 0.000000 0.000000
vn -1.000000 0.000000 0.000000
vn -1.000000 0.000000 0.000000
vn -1.000000 0.000000 0.000000
vn -1.000000 0.000000 0.000000
vn -1.000000 0.000000 0.000000
vn -1.000000 0.000000 0.000000
vn 0.000000 0.000000 1.000000
vn 0.000000 0.000000 1.000000
vn 0.000000 0.000000 1.000000
vn 0.000000 0.000000 1.000000
vn 1.000000 0.000000 0.000000
vn 1.000000 0.000000 0.000000
vn 1.000000 0.000000 0.000000
vn 1.000000 0.000000 0.000000
vn 0.000000 0.000000 -1.000000
vn 0.000000 0.000000 -1.000000
vn 0.000000 0.000000 -1.000000
vn 0.000000 0.000000 -1.000000
vn -1.000000 0.000000 0.000000
vn -1.000000 0.000000 0.000000
vn -1.000000 0.000000 0.000000
vn -1.000000 0.000000 0.000000
vn 0.000000 0.000000 1.000000
vn 0.000000 0.000000 1.000000
vn 0.000000 0.000000 1.000000
vn 0.000000 0.000000 1.000000
vn 1.000000 0.000000 0.000000
vn 1.000000 0.000000 0.000000
vn 1.000000 0.000000 0.000000
vn 1.000000 0.000000 0.000000
vn 0.000000 0.000000 -1.000000
vn 0.000000 0.000000 -1.000000
vn 0.000000 0.000000 -1.000000
vn 0.000000 0.000000 -1.000000
vn 0.000000 0.000000 1.000000
vn 0.000000 0.000000 1.000000
vn 0.000000 0.000000 1.000000
vn 0.000000 1.000000 0.000000
vn 0.000000 1.000000 0.000000
vn 0.000000 1.000000 0.000000
vn 0.000000 1.000000 0.000000
vn -0.000001 0.000000 -1.000000
vn -0.000000 0.000000 -1.000000
vn -0.000000 0.000000 -1.000000
vn 1.000000 0.000000 0.000000
vn 1.000000 0.000000 0.000000
vn 1.000000 0.000000 0.000000
vn 1.000000 0.000000 0.000000
vn -1.000000 0.000000 0.000000
vn -1.000000 0.000000 0.000000
vn -1.000000 0.000000 0.000000
vn -1.000000 0.000000 0.000000
vn -0.000000 0.000000 -1.000000
vn -0.000000 0.000000 -1.000000
vn -0.000000 0.000000 -1.000000
vn 0.000000 0.000000 1.000000
vn 0.000000 0.000000 1.000000
vn 0.000000 0.000000 1.000000
vn 0.000000 1.000000 0.000000
vn 0.000000 1.000000 0.000000
vn 0.000000 1.000000 0.000000
vn 0.000000 1.000000 0.000000
vn 0.000000 0.000000 -1.000000
vn 0.000000 0.000000 -1.000000
vn 0.000000 -1.000000 0.000000
vn 0.000000 -1.000000 0.000000
vn 0.000000 -1.000000 0.000000
vn 0.000000 -1.000000 0.000000
vn 0.000000 0.000000 1.000000
vn 0.000000 0.000000 1.000000
vn 0.000000 1.000000 0.000000
vn 0.000000 1.000000 0.000000
vn 0.000000 1.000000 0.000000
vn 0.000000 1.000000 0.000000
vn 0.000000 0.000000 -1.000000
vn 0.000000 0.000000 1.000000
vn 0.000000 1.000000 0.000000
vn 0.000000 1.000000 0.000000
vn 0.000000 1.000000 0.000000
vn 0.000000 1.000000 0.000000
vn 0.000000 -1.000000 0.000000
vn 0.000000 -1.000000 0.000000
vn 0.000000 1.000000 0.000000
vn 0.000000 1.000000 0.000000
vn 0.000000 1.000000 0.000000
vn 0.000000 1.000000 0.000000
vn 0.000000 0.000000 1.000000
vn 0.000000 0.000000 1.000000
vn 0.000000 0.000000 1.000000
vn 0.000000 0.000000 1.000000
vn 1.000000 0.000000 0.000000
vn 1.000000 0.000000 0.000000
vn 1.000000 0.000000 0.000000
vn 1.000000 0.000000 0.000000
vn 0.000000 0.000000 -1.000000
vn 0.000000 0.000000 -1.000000
vn 0.000000 0.000000 -1.000000
vn 0.000000 0.000000 -1.000000
vn -1.000000 0.000000 0.000000
vn -1.000000 0.000000 0.000000
vn -1.000000 0.000000 0.000000
vn -1.000000 0.000000 0.000000
vn -1.000000 0.000000 0.000000
vn -1.000000 0.000000 0.000000
vn -1.000000 0.000000 0.000000
vn -1.000000 0.000000 0.000000
vn 0.000000 0.000000 1.000000
vn 0.000000 0.000000 1.000000
vn 0.000000 0.000000 1.000000
vn 0.000000 0.000000 1.000000
vn 1.000000 0.000000 0.000000
vn 1.000000 0.000000 0.000000
vn 1.000000 0.000000 0.000000
vn 1.000000 0.000000 0.000000
vn 0.000000 0.000000 -1.000000
vn 0.000000 0.000000 -1.000000
vn 0.000000 0.000000 -1.000000
vn 0.000000 0.000000 -1.000000
vn -1.000000 0.000000 0.000000
vn -1.000000 0.000000 0.000000
vn -1.000000 0.000000 0.000000
vn -1.000000 0.000000 0.000000
vn 0.000000 0.000000 1.000000
vn 0.000000 0.000000 1.000000
vn 0.000000 0.000000 1.000000
vn 0.000000 0.000000 1.000000
vn 1.000000 0.000000 0.000000
vn 1.000000 0.000000 0.000000
vn 1.000000 0.000000 0.000000
vn 1.000000 0.000000 0.000000
vn 0.000000 0.000000 -1.000000
vn 0.000000 0.000000 -1.000000
vn 0.000000 0.000000 -1.000000
vn 0.000000 0.000000 -1.000000
vn 0.000000 0.000000 1.000000
vn 0.000000 0.000000 1.000000
vn 0.000000 0.000000 1.000000
vn 0.000000 0.000000 1.000000
vn 0.000000 1.000000 0.000000
vn 0.000000 1.000000 0.000000
vn 0.000000 1.000000 0.000000
vn 0.000000 1.000000 0.000000
vn 0.000000 0.000000 -1.000000
vn 0.000000 0.000000 -1.000000
vn 0.000000 0.000000 -1.000000
vn 0.000000 0.000000 -1.000000
vn 0.000000 -1.000000 0.000000
vn 0.000000 -1.000000 0.000000
vn 0.000000 -1.000000 0.000000
vn 0.000000 -1.000000 0.000000
vn 1.000000 0.000000 0.000000
vn 1.000000 0.000000 0.000000
vn 1.000000 0.000000 0.000000
vn 1.000000 0.000000 0.000000
vn -1.000000 0.000000 0.000000
vn -1.000000 0.000000 0.000000
vn -1.000000 0.000000 0.000000
vn -1.000000 0.000000 0.000000
vn 0.000000 0.000000 1.000000
vn 0.000000 0.000000 1.000000
vn 0.000000 0.000000 1.000000
vn 0.000000 0.000000 1.000000
vn 0.000000 1.000000 0.000000
vn 0.000000 1.000000 0.000000
vn 0.000000 1.000000 0.000000
vn 0.000000 1.000000 0.000000
vn 0.000000 0.000000 -1.000000
vn 0.000000 0.000000 -1.000000
vn 0.000000 0.000000 -1.000000
vn 0.000000 0.000000 -1.000000
vn 0.000000 -1.000000 0.000000
vn 0.000000 -1.000000 0.000000
vn 0.000000 -1.000000 0.000000
vn 0.000000 -1.000000 0.000000
vn 1.000000 0.000000 0.000000
vn 1.000000 0.000000 0.000000
vn 1.000000 0.000000 0.000000
vn 1.000000 0.000000 0.000000
vn -1.000000 0.000000 0.000000
vn -1.000000 0.000000 0.000000
vn -1.000000 0.000000 0.000000
vn -1.000000 0.000000 0.000000
vn 0.000000 0.000000 1.000000
vn 0.000000 0.000000 1.000000
vn 0.000000 0.000000 1.000000
vn 0.000000 0.000000 1.000000
vn 0.000000 1.000000 0.000000
vn 0.000000 1.000000 0.000000
vn 0.000000 1.000000 0.000000
vn 0.000000 1.000000 0.000000
vn 0.000000 0.000000 -1.000000
vn 0.000000 0.000000 -1.000000
vn 0.000000 0.000000 -1.000000
vn 0.000000 0.000000 -1.000000
vn 0.000000 -1.000000 0.000000
vn 0.000000 -1.000000 0.000000
vn 0.000000 -1.000000 0.000000
vn 0.000000 -1.000000 0.000000
vn 1.000000 0.000000 0.000000
vn 1.000000 0.000000 0.000000
vn 1.000000 0.000000 0.000000
vn 1.000000 0.000000 0.000000
vn -1.000000 0.000000 0.000000
vn -1.000000 0.000000 0.000000
vn -1.000000 0.000000 0.000000
vn -1.000000 0.000000 0.000000
s 1
g pCube17
usemtl phong1SG
f 1/1/1 18/2/2 3/3/3
s off
f 19/4/4 20/5/5 21/6/6 22/7/7
s 2
f 5/8/8 17/9/9 7/10/10
s off
f 2/11/11 8/12/12 6/13/13 4/14/14
f 7/10/15 1/1/16 3/3/17 5/8/18
s 2
f 9/15/19 6/13/20 8/12/21
s 1
f 10/16/22 2/11/23 4/14/24
s off
f 24/17/25 23/18/26 25/19/27 26/20/28
s 2
f 11/21/29 9/15/19 8/12/21 12/22/30
s 5
f 13/23/31 12/22/32 8/12/33 2/11/34
s 1
f 14/24/35 13/23/36 2/11/23 10/16/22
s off
f 11/21/37 14/24/38 10/16/39 9/15/40
s 2
f 15/25/41 11/21/29 12/22/30
s 1
f 16/26/42 13/23/36 14/24/35
s off
f 28/27/43 27/28/44 29/29/45 30/30/46
s 2
f 17/9/9 15/25/41 12/22/30 7/10/10
s 5
f 1/1/47 7/10/48 12/22/32 13/23/31
s 1
f 18/2/2 1/1/1 13/23/36 16/26/42
s off
f 17/9/49 18/2/50 16/26/51 15/25/52
f 3/3/53 18/2/54 20/5/55 19/4/56
f 18/2/57 17/9/58 21/6/59 20/5/60
f 17/9/61 5/8/62 22/7/63 21/6/64
f 5/8/65 3/3/66 19/4/67 22/7/68
f 9/15/69 10/16/70 23/18/71 24/17/72
f 10/16/73 4/14/74 25/19/75 23/18/76
f 4/14/77 6/13/78 26/20/79 25/19/80
f 6/13/81 9/15/82 24/17/83 26/20/84
f 15/25/85 16/26/86 27/28/87 28/27/88
f 16/26/89 14/24/90 29/29/91 27/28/92
f 14/24/93 11/21/94 30/30/95 29/29/96
f 11/21/97 15/25/98 28/27/99 30/30/100
s 6
f 31/31/101 48/32/102 33/33/103
s off
f 49/34/104 50/35/105 51/36/106 52/37/107
s 7
f 35/38/108 47/39/109 37/40/110
s off
f 32/41/111 38/42/112 36/43/113 34/44/114
f 37/40/115 31/31/116 33/33/117 35/38/118
s 7
f 39/45/119 36/43/120 38/42/121
s 6
f 40/46/122 32/41/123 34/44/124
s off
f 54/47/125 53/48/126 55/49/127 56/50/128
s 7
f 41/51/129 39/45/119 38/42/121 42/52/130
s 10
f 43/53/131 42/52/132 38/42/133 32/41/134
s 6
f 44/54/135 43/53/136 32/41/123 40/46/122
s off
f 41/51/137 44/54/138 40/46/139 39/45/140
s 7
f 45/55/141 41/51/129 42/52/130
s 6
f 46/56/142 43/53/136 44/54/135
s off
f 58/57/143 57/58/144 59/59/145 60/60/146
s 7
f 47/39/109 45/55/141 42/52/130 37/40/110
s 10
f 31/31/147 37/40/148 42/52/132 43/53/131
s 6
f 48/32/102 31/31/101 43/53/136 46/56/142
s off
f 47/39/149 48/32/150 46/56/151 45/55/152
f 33/33/153 48/32/154 50/35/155 49/34/156
f 48/32/157 47/39/158 51/36/159 50/35/160
f 47/39/161 35/38/162 52/37/163 51/36/164
f 35/38/165 33/33/166 49/34/167 52/37/168
f 39/45/169 40/46/170 53/48/171 54/47/172
f 40/46/173 34/44/174 55/49/175 53/48/176
f 34/44/177 36/43/178 56/50/179 55/49/180
f 36/43/181 39/45/182 54/47/183 56/50/184
f 45/55/185 46/56/186 57/58/187 58/57/188
f 46/56/189 44/54/190 59/59/191 57/58/192
f 44/54/193 41/51/194 60/60/195 59/59/196
f 41/51/197 45/55/198 58/57/199 60/60/200
s 11
f 61/61/201 78/62/202 63/63/203
s off
f 79/64/204 80/65/205 81/66/206 82/67/207
s 12
f 65/68/208 77/69/209 67/70/210
s off
f 62/71/211 68/72/212 66/73/213 64/74/214
f 67/70/215 61/61/216 63/63/217 65/68/218
s 12
f 69/75/219 66/73/220 68/72/221
s 11
f 70/76/222 62/71/223 64/74/224
s off
f 84/77/225 83/78/226 85/79/227 86/80/228
s 12
f 71/81/229 69/75/219 68/72/221 72/82/230
s 15
f 73/83/231 72/82/232 68/72/233 62/71/234
s 11
f 74/84/235 73/83/236 62/71/223 70/76/222
s off
f 71/81/237 74/84/238 70/76/239 69/75/240
s 12
f 75/85/241 71/81/229 72/82/230
s 11
f 76/86/242 73/83/236 74/84/235
s off
f 88/87/243 87/88/244 89/89/245 90/90/246
s 12
f 77/69/209 75/85/241 72/82/230 67/70/210
s 15
f 61/61/247 67/70/248 72/82/232 73/83/231
s 11
f 78/62/202 61/61/201 73/83/236 76/86/242
s off
f 77/69/249 78/62/250 76/86/251 75/85/252
f 63/63/253 78/62/254 80/65/255 79/64/256
f 78/62/257 77/69/258 81/66/259 80/65/260
f 77/69/261 65/68/262 82/67/263 81/66/264
f 65/68/265 63/63/266 79/64/267 82/67/268
f 69/75/269 70/76/270 83/78/271 84/77/272
f 70/76/273 64/74/274 85/79/275 83/78/276
f 64/74/277 66/73/278 86/80/279 85/79/280
f 66/73/281 69/75/282 84/77/283 86/80/284
f 75/85/285 76/86/286 87/88/287 88/87/288
f 76/86/289 74/84/290 89/89/291 87/88/292
f 74/84/293 71/81/294 90/90/295 89/89/296
f 71/81/297 75/85/298 88/87/299 90/90/300
f 91/91/301 92/92/302 94/93/303 93/94/304
f 93/95/305 94/96/306 96/97/307 95/98/308
f 95/99/309 96/100/310 98/101/311 97/102/312
f 97/103/313 98/104/314 92/105/315 91/106/316
f 92/107/317 98/108/318 96/109/319 94/110/320
f 97/111/321 91/112/322 93/113/323 95/114/324
f 99/115/325 100/116/326 102/117/327 101/118/328
f 101/119/329 102/120/330 104/121/331 103/122/332
f 103/123/333 104/124/334 106/125/335 105/126/336
f 105/127/337 106/128/338 100/129/339 99/130/340
f 100/131/341 106/132/342 104/133/343 102/134/344
f 105/135/345 99/136/346 101/137/347 103/138/348
f 107/139/349 108/140/350 110/141/351 109/142/352
f 109/143/353 110/144/354 112/145/355 111/146/356
f 111/147/357 112/148/358 114/149/359 113/150/360
f 113/151/361 114/152/362 108/153/363 107/154/364
f 108/155/365 114/156/366 112/157/367 110/158/368
f 113/159/369 107/160/370 109/161/371 111/162/372
