# This file uses centimeters as units for non-parametric coordinates.

mtllib Microphone.mtl
g default
v -0.367706 -0.057861 -0.119475
v -0.227255 -0.057861 0.312789
v 0.227255 -0.057861 0.312789
v 0.367706 -0.057861 -0.119475
v 0.000000 -0.057861 -0.386629
v -0.367706 0.057861 -0.119475
v -0.227255 0.057861 0.312789
v 0.227255 0.057861 0.312789
v 0.367706 0.057861 -0.119475
v 0.000000 0.057861 -0.386629
v 0.000000 -0.057861 0.000000
v -0.065031 0.057861 0.041645
v 0.065031 0.057861 0.041645
v 0.000000 0.057861 -0.070992
v -0.050831 2.364809 0.018800
v 0.050831 2.364809 0.018800
v 0.000000 2.364809 -0.049751
v 0.038766 2.460749 -0.071722
v -0.038766 2.460749 -0.071722
v 0.062724 2.415412 0.072432
v -0.062724 2.415412 0.072432
v 0.000000 2.446687 0.105579
v 0.062724 2.511352 -0.018090
v -0.062724 2.511352 -0.018090
v 0.000000 2.542627 0.015057
v 0.048939 2.269592 0.205762
v 0.030246 2.230110 0.163917
v -0.000000 2.258679 0.194196
v -0.030246 2.230110 0.163917
v -0.048939 2.269592 0.205762
v -0.000000 2.293993 0.231623
v 0.093863 2.585742 -0.074368
v 0.058011 2.510018 -0.154626
v -0.058011 2.510018 -0.154625
v -0.093863 2.585743 -0.074368
v 0.000000 2.632543 -0.024766
v 0.074880 2.684190 -0.175736
v 0.046278 2.623781 -0.239762
v 0.000000 2.667494 -0.193433
v -0.046278 2.623782 -0.239762
v -0.074879 2.684191 -0.175736
v 0.000000 2.721526 -0.136166
v -0.050831 2.364809 0.018800
v 0.050831 2.364809 0.018800
v -0.038766 2.460749 -0.071722
v 0.038766 2.460749 -0.071722
vt 0.318260 0.208223
vt 0.258885 0.016080
vt 0.363714 0.229319
vt 0.066742 0.016080
vt 0.363714 0.057155
vt 0.007367 0.208223
vt 0.162814 0.326973
vt 0.642282 0.143237
vt 0.162814 0.156822
vt 0.476605 0.123983
vt 0.476605 0.162491
vt 0.511670 0.143237
vt 0.535878 0.282521
vt 0.535878 0.003953
vt 0.806202 0.788700
vt 0.806202 0.592554
vt 0.856141 0.592555
vt 0.856140 0.788700
vt 0.806202 0.396373
vt 0.856141 0.396373
vt 0.806202 0.200227
vt 0.856141 0.200227
vt 0.806202 0.003976
vt 0.856140 0.984951
vt 0.806202 0.984951
vt 0.856141 0.003976
vt 0.911745 0.006058
vt 0.954989 0.006058
vt 0.955003 0.987679
vt 0.911731 0.987679
vt 0.998239 0.006058
vt 0.872292 0.987679
vt 0.868496 0.006058
vt 0.994445 0.987679
vt 0.588280 0.560007
vt 0.686012 0.560007
vt 0.651550 0.667091
vt 0.720474 0.667091
vt 0.783744 0.560007
vt 0.488740 0.553920
vt 0.559853 0.553920
vt 0.559853 0.666991
vt 0.488740 0.666991
vt 0.488740 0.354634
vt 0.559853 0.354634
vt 0.573964 0.760492
vt 0.474629 0.760492
vt 0.559853 0.873606
vt 0.488740 0.873606
vt 0.091399 0.553920
vt 0.162511 0.553920
vt 0.162511 0.666991
vt 0.091399 0.666991
vt 0.091399 0.354634
vt 0.162511 0.354634
vt 0.176623 0.760492
vt 0.077288 0.760492
vt 0.162511 0.873606
vt 0.091399 0.873606
vt 0.389405 0.553920
vt 0.460518 0.553920
vt 0.460517 0.666991
vt 0.389405 0.666991
vt 0.389405 0.354634
vt 0.460518 0.354634
vt 0.474629 0.760492
vt 0.375294 0.760492
vt 0.460518 0.873606
vt 0.389405 0.873606
vt 0.190734 0.553919
vt 0.261847 0.553919
vt 0.261847 0.666991
vt 0.190734 0.666991
vt 0.190734 0.354633
vt 0.261847 0.354633
vt 0.275958 0.760492
vt 0.176623 0.760492
vt 0.261847 0.873606
vt 0.190734 0.873606
vt 0.290070 0.354634
vt 0.267985 0.287082
vt 0.325516 0.305660
vt 0.361140 0.354506
vt 0.382979 0.286874
vt 0.325407 0.245204
vt 0.267999 0.941268
vt 0.290070 0.873606
vt 0.325599 0.922626
vt 0.361182 0.873606
vt 0.383156 0.941401
vt 0.325530 0.983168
vt 0.361182 0.553919
vt 0.290069 0.553920
vt 0.290070 0.666991
vt 0.361182 0.666991
vt 0.375294 0.760492
vt 0.275958 0.760492
vt 0.290070 0.873606
vt 0.361240 0.873688
vt 0.290070 0.354634
vt 0.361182 0.354634
vn -0.951057 0.000000 0.309017
vn -0.951057 0.000000 0.309017
vn -0.951057 0.000000 0.309017
vn -0.951057 0.000000 0.309017
vn -0.000000 0.000000 1.000000
vn -0.000000 0.000000 1.000000
vn -0.000000 0.000000 1.000000
vn -0.000000 0.000000 1.000000
vn 0.951057 0.000000 0.309017
vn 0.951057 0.000000 0.309017
vn 0.951057 0.000000 0.309017
vn 0.951057 0.000000 0.309017
vn 0.587785 0.000000 -0.809017
vn 0.587785 0.000000 -0.809017
vn 0.587785 0.000000 -0.809017
vn 0.587785 0.000000 -0.809017
vn -0.587785 0.000000 -0.809017
vn -0.587785 0.000000 -0.809017
vn -0.587785 0.000000 -0.809017
vn -0.587785 0.000000 -0.809017
vn 0.000000 -1.000000 0.000000
vn 0.000000 -1.000000 0.000000
vn 0.000000 -1.000000 0.000000
vn 0.000000 -1.000000 0.000000
vn 0.000000 -1.000000 -0.000000
vn 0.000000 -1.000000 0.000000
vn -0.000000 0.009902 0.999951
vn -0.000000 0.009902 0.999951
vn -0.000000 0.009902 0.999951
vn -0.000000 0.009902 0.999951
vn 0.842477 0.002406 -0.538727
vn 0.842477 0.002406 -0.538727
vn 0.842477 0.002406 -0.538727
vn 0.842477 0.002406 -0.538727
vn -0.842477 0.002406 -0.538727
vn -0.842477 0.002406 -0.538727
vn -0.842477 0.002406 -0.538727
vn -0.842477 0.002406 -0.538727
vn 0.000000 1.000000 -0.000000
vn 0.000000 1.000000 -0.000000
vn 0.000000 1.000000 -0.000000
vn 0.000000 1.000000 -0.000000
vn -0.000000 1.000000 -0.000000
vn -0.000000 1.000000 -0.000000
vn -0.000000 1.000000 -0.000000
vn -0.000000 1.000000 -0.000000
vn 0.000000 1.000000 0.000000
vn 0.000000 1.000000 0.000000
vn 0.000000 1.000000 0.000000
vn 0.000000 1.000000 0.000000
vn 0.000000 1.000000 0.000000
vn 0.000000 1.000000 0.000000
vn 0.000000 1.000000 0.000000
vn -0.000000 1.000000 0.000000
vn -0.000000 1.000000 0.000000
vn -0.000000 1.000000 0.000000
vn 0.729491 -0.418629 -0.540918
vn 0.729491 -0.418629 -0.540918
vn 0.729491 -0.418629 -0.540918
vn -0.560526 -0.393369 -0.728746
vn -0.329781 -0.335341 -0.882491
vn 0.000000 -0.223221 -0.974768
vn -0.729491 -0.418629 -0.540919
vn 0.972466 -0.181688 -0.145945
vn 0.972477 -0.181161 -0.146525
vn 0.954740 -0.274903 -0.113577
vn 0.955005 -0.273649 -0.114377
vn -0.972477 -0.181161 -0.146525
vn -0.972466 -0.181688 -0.145945
vn -0.955005 -0.273648 -0.114377
vn -0.954741 -0.274901 -0.113578
vn -0.587517 0.532938 0.608934
vn -0.587516 0.532885 0.608982
vn -0.581952 0.447485 0.679035
vn -0.581952 0.447485 0.679035
vn 0.587514 0.532886 0.608982
vn 0.587516 0.532939 0.608935
vn 0.581953 0.447485 0.679034
vn 0.581953 0.447485 0.679035
vn 0.000003 -0.727354 0.686263
vn -0.000000 -0.727348 0.686268
vn 0.000000 -0.727348 0.686269
vn 0.000001 -0.727350 0.686266
vn -0.000000 -0.727346 0.686271
vn -0.000001 -0.727342 0.686275
vn 0.000007 0.727349 -0.686268
vn 0.000005 0.727345 -0.686273
vn 0.000003 0.727348 -0.686269
vn 0.000001 0.727345 -0.686272
vn -0.000000 0.727350 -0.686267
vn 0.000003 0.727352 -0.686264
vn 0.969951 -0.220634 -0.102549
vn 0.969951 -0.220634 -0.102549
vn 0.000005 -0.732925 -0.680310
vn 0.000005 -0.732925 -0.680310
vn 0.000005 -0.732925 -0.680309
vn 0.000005 -0.732925 -0.680309
vn -0.969951 -0.220634 -0.102549
vn -0.969951 -0.220634 -0.102549
vn -0.586941 0.515411 0.624382
vn -0.586941 0.515411 0.624382
vn 0.586939 0.515412 0.624382
vn 0.586939 0.515412 0.624382
vn 0.950639 -0.233529 -0.204328
vn 0.950639 -0.233530 -0.204327
vn -0.000004 -0.859653 -0.510879
vn -0.000004 -0.859653 -0.510879
vn -0.000006 -0.707520 -0.706693
vn -0.000006 -0.707520 -0.706693
vn -0.950639 -0.233527 -0.204331
vn -0.950639 -0.233527 -0.204331
vn -0.587525 0.533408 0.608515
vn -0.587525 0.533408 0.608515
vn 0.587529 0.533406 0.608513
vn 0.587529 0.533406 0.608513
vn 0.944895 -0.128035 -0.301297
vn 0.944895 -0.128035 -0.301297
vn -0.000007 -0.599161 -0.800629
vn -0.000007 -0.599161 -0.800629
vn -0.944894 -0.128032 -0.301302
vn -0.944894 -0.128032 -0.301302
vn -0.583974 0.634270 0.506631
vn -0.583974 0.634270 0.506631
vn 0.583979 0.634266 0.506631
vn 0.583979 0.634266 0.506631
s off
g pCylinder7
usemtl lambert21SG
f 1/15/1 2/16/2 7/17/3 6/18/4
f 2/16/5 3/19/6 8/20/7 7/17/8
f 3/19/9 4/21/10 9/22/11 8/20/12
f 4/21/13 5/23/14 10/26/15 9/22/16
f 5/25/17 1/15/18 6/18/19 10/24/20
s 1
f 2/2/21 1/1/22 11/9/23
f 3/4/24 2/2/21 11/9/23
f 4/6/25 3/4/24 11/9/23
f 5/7/26 4/6/25 11/9/23
f 1/1/22 5/7/26 11/9/23
s off
f 12/27/27 13/28/28 44/29/29 43/30/30
f 13/28/31 14/31/32 17/34/33 44/29/34
f 14/33/35 12/27/36 43/30/37 17/32/38
f 13/10/39 12/11/40 7/3/41 8/5/42
f 14/12/43 13/10/44 8/5/45 10/8/46
f 12/11/47 14/12/48 10/8/49 7/3/50
f 10/8/51 8/5/52 9/14/53
f 7/3/54 10/8/55 6/13/56
f 44/35/57 17/36/58 46/37/59
s 2
f 17/36/60 45/38/61 46/37/62
f 17/36/60 43/39/63 45/38/61
s 3
f 20/60/64 16/61/65 18/62/66 23/63/67
s 4
f 15/70/68 21/71/69 24/72/70 19/73/71
s 5
f 21/50/72 22/51/73 25/52/74 24/53/75
s 6
f 22/40/76 20/41/77 23/42/78 25/43/79
s 7
f 27/80/80 26/81/81 28/82/82
f 29/83/83 27/80/80 28/82/82
f 30/84/84 29/83/83 28/82/82
f 31/85/85 30/84/84 28/82/82
f 26/81/81 31/85/85 28/82/82
s 8
f 37/86/86 38/98/87 39/88/88
f 38/98/87 40/99/89 39/88/88
f 40/99/89 41/90/90 39/88/88
f 41/90/90 42/91/91 39/88/88
f 42/91/91 37/86/86 39/88/88
s 3
f 16/61/65 20/60/64 26/64/92 27/65/93
s off
f 15/92/94 16/93/95 27/100/96 29/101/97
s 4
f 21/71/69 15/70/68 29/74/98 30/75/99
s 5
f 22/51/73 21/50/72 30/54/100 31/55/101
s 6
f 20/41/77 22/40/76 31/44/102 26/45/103
s 3
f 23/63/67 18/62/66 33/66/104 32/67/105
s 9
f 18/94/106 19/95/107 34/96/108 33/97/109
s 4
f 19/73/71 24/72/70 35/76/110 34/77/111
s 5
f 24/53/75 25/52/74 36/56/112 35/57/113
s 6
f 25/43/79 23/42/78 32/46/114 36/47/115
s 3
f 32/67/105 33/66/104 38/68/116 37/69/117
s 9
f 33/97/109 34/96/108 40/89/118 38/87/119
s 4
f 34/77/111 35/76/110 41/78/120 40/79/121
s 5
f 35/57/113 36/56/112 42/58/122 41/59/123
s 6
f 36/47/115 32/46/114 37/48/124 42/49/125
