# This file uses centimeters as units for non-parametric coordinates.

mtllib PortableComputerTerminal.mtl
g default
v 11.739895 0.502974 -0.154649
v 12.260104 0.502974 -0.154649
v 11.739895 0.486087 -0.209696
v 12.260104 0.486087 -0.209696
v 11.739895 0.188718 -0.118471
v 12.260104 0.188718 -0.118471
v 11.739895 0.205605 -0.063424
v 12.260104 0.205605 -0.063424
v 12.134018 0.188718 -0.118471
v 12.134018 0.205605 -0.063424
v 12.260104 0.502974 -0.154649
v 12.260104 0.486087 -0.209696
v 11.865983 0.188718 -0.118471
v 11.865983 0.205605 -0.063424
v 11.739895 0.502974 -0.154649
v 11.739895 0.486087 -0.209696
v 11.865983 0.128932 -0.100130
v 12.134018 0.128932 -0.100130
v 12.134018 0.135976 -0.077169
v 11.865983 0.135976 -0.077169
v 11.739895 0.156754 -0.260105
v 12.260104 0.156754 -0.260105
v 12.260104 0.000000 -0.260105
v 11.739895 0.000000 -0.260105
v 11.865982 0.102577 -0.050942
v 11.865982 0.102577 -0.124995
v 11.865982 0.156754 -0.124995
v 11.865982 0.156754 -0.050942
v 12.260104 0.000000 0.260105
v 11.739895 0.000000 0.260105
v 12.134018 0.156754 -0.124995
v 12.134018 0.102577 -0.124995
v 12.134018 0.102577 -0.050942
v 12.134018 0.156754 -0.050942
v 11.739895 0.102577 -0.050942
v 11.739895 0.102577 0.260105
v 12.260104 0.102577 0.260105
v 12.260104 0.102577 -0.050942
v 11.739895 0.156754 -0.050942
v 12.260104 0.156754 -0.050942
vt 0.971975 0.732454
vt 0.971975 0.946421
vt 0.918925 0.946421
vt 0.918925 0.732453
vt 0.431963 0.946421
vt 0.431963 0.732453
vt 0.485013 0.732453
vt 0.485013 0.946421
vt 0.036061 0.872185
vt 0.036060 0.923002
vt 0.089038 0.893381
vt 0.089038 0.872186
vt 0.365588 0.923001
vt 0.365584 0.872185
vt 0.312608 0.872186
vt 0.312609 0.893381
vt 0.590184 0.946421
vt 0.590184 0.994018
vt 0.485013 0.994018
vt 0.813755 0.946421
vt 0.918925 0.994018
vt 0.813755 0.994018
vt 0.485013 0.732453
vt 0.485013 0.684211
vt 0.918925 0.684211
vt 0.918925 0.732453
vt 0.312608 0.825911
vt 0.740804 0.636244
vt 0.740803 0.531073
vt 0.972448 0.636244
vt 0.972448 0.636244
vt 0.972448 0.202333
vt 0.089038 0.950822
vt 0.740803 0.202333
vt 0.972448 0.202333
vt 0.089038 0.825911
vt 0.312608 0.950822
vt 0.740803 0.307503
vt 0.354830 0.439216
vt 0.692470 0.439216
vt 0.692470 0.316344
vt 0.354830 0.272992
vt 0.431322 0.272992
vt 0.354830 0.316344
vt 0.431322 0.316344
vt 0.017629 0.022756
vt 0.354957 0.360085
vt 0.354957 0.022756
vt 0.617036 0.316344
vt 0.617036 0.272992
vt 0.693528 0.316344
vt 0.693528 0.272992
vt 0.017628 0.439216
vt 0.354957 0.360085
vt 0.354957 0.439216
vt 0.490461 0.520747
vt 0.692159 0.439216
vt 0.692159 0.520747
vt 0.219251 0.520788
vt 0.354831 0.563871
vt 0.219251 0.563871
vt 0.017628 0.609392
vt 0.098632 0.656967
vt 0.017628 0.743767
vt 0.610525 0.272473
vt 0.436718 0.272473
vt 0.610525 0.224454
vt 0.436718 0.224454
vt 0.098632 0.578945
vt 0.098632 0.609392
vt 0.017628 0.578945
vt 0.351832 0.578944
vt 0.351832 0.609392
vt 0.270829 0.578944
vt 0.270829 0.609392
vt 0.692286 0.022756
vt 0.354957 0.022756
vt 0.354957 0.224454
vt 0.692286 0.224454
vt 0.354831 0.439216
vt 0.017628 0.439216
vt 0.354831 0.439216
vt 0.354831 0.563809
vt 0.490461 0.563809
vt 0.017628 0.520788
vt 0.017628 0.360085
vt 0.017629 0.360085
vt 0.354830 0.316344
vt 0.270829 0.656967
vt 0.351832 0.743767
vn -0.000000 0.000000 0.000000
vn -0.000000 0.956025 -0.293285
vn -0.000000 0.956025 -0.293285
vn -0.000000 0.000000 0.000000
vn 0.000000 -0.000000 -0.000000
vn 0.000000 -0.293285 -0.956025
vn 0.000000 -0.293285 -0.956025
vn 0.000000 -0.293285 -0.956025
vn 0.000000 -0.956025 0.293285
vn 0.000000 -0.956025 0.293285
vn 0.000000 -0.956025 0.293285
vn 0.000000 -0.956025 0.293285
vn 0.000000 0.293285 0.956025
vn 0.000000 0.293285 0.956025
vn 0.000000 0.293285 0.956025
vn 0.000000 0.293285 0.956025
vn 1.000000 0.000000 0.000000
vn 1.000000 0.000000 0.000000
vn 1.000000 0.000000 0.000000
vn 1.000000 0.000000 0.000000
vn -1.000000 0.000003 0.000000
vn -1.000000 0.000003 0.000000
vn -1.000000 0.000003 0.000000
vn -1.000000 0.000003 0.000000
vn 0.000000 -0.956025 0.293286
vn 0.000000 -0.956025 0.293286
vn 0.000000 -0.956025 0.293286
vn 0.000000 -0.956025 0.293286
vn 0.000000 0.293285 0.956025
vn 0.000000 0.293285 0.956025
vn 0.000000 0.293285 0.956025
vn 0.000000 0.293285 0.956025
vn 0.000000 0.956025 -0.293285
vn 0.000000 0.956025 -0.293285
vn 0.000000 0.000000 0.000000
vn 0.000000 0.000000 0.000000
vn 0.000000 -0.293285 -0.956025
vn 0.000000 -0.293285 -0.956025
vn 0.000000 -0.000000 -0.000000
vn 0.000000 -0.293285 -0.956025
vn 0.000000 -0.956025 0.293285
vn 0.000000 -0.956025 0.293285
vn 0.000000 -0.956025 0.293285
vn 0.000000 -0.956025 0.293285
vn 0.000000 -0.293285 -0.956025
vn 0.000000 -0.293285 -0.956025
vn 0.000000 -0.293285 -0.956025
vn 0.000000 -0.293285 -0.956025
vn 1.000000 0.000000 0.000000
vn 1.000000 0.000000 0.000000
vn 1.000000 0.000000 0.000000
vn 1.000000 0.000000 0.000000
vn 0.000000 -0.193674 0.981066
vn 0.000000 -0.193674 0.981066
vn 0.000000 -0.193674 0.981066
vn 0.000000 -0.193674 0.981066
vn -1.000000 0.000009 0.000000
vn -1.000000 0.000009 0.000000
vn -1.000000 0.000009 0.000000
vn -1.000000 0.000009 0.000000
vn 0.000000 0.000000 -1.000000
vn 0.000000 0.000000 -1.000000
vn 0.000000 0.000000 -1.000000
vn 1.000000 -0.000014 0.000000
vn 1.000000 -0.000006 0.000000
vn 1.000000 -0.000009 0.000000
vn 1.000000 0.000000 0.000000
vn 0.000000 -1.000000 0.000000
vn 0.000000 -1.000000 0.000000
vn 0.000000 -1.000000 0.000000
vn 0.000000 0.000000 1.000000
vn 0.000000 0.000000 1.000000
vn 0.000000 0.000000 1.000000
vn 0.000000 0.000000 1.000000
vn -1.000000 0.000000 0.000000
vn -1.000000 0.000000 0.000000
vn -1.000000 0.000000 0.000000
vn -1.000000 0.000000 0.000000
vn 0.000000 0.000000 1.000000
vn 0.000000 0.000000 1.000000
vn 0.000000 0.000000 1.000000
vn -1.000000 -0.000006 0.000000
vn -1.000000 0.000008 0.000000
vn -1.000000 0.000015 0.000000
vn 1.000000 -0.000000 0.000000
vn 1.000000 0.000000 0.000000
vn 1.000000 0.000000 0.000000
vn 0.000000 1.000000 0.000000
vn 0.000000 1.000000 -0.000000
vn 0.000000 1.000000 0.000000
vn 0.000000 1.000000 0.000000
vn 0.000000 1.000000 0.000000
vn 0.000000 1.000000 0.000000
vn 0.000000 1.000000 0.000000
vn 0.000000 0.000000 1.000000
vn 0.000000 0.000000 1.000000
vn 0.000000 0.000000 1.000000
vn 0.000000 0.000000 1.000000
vn -0.000000 0.000000 1.000000
vn -0.000000 0.000000 1.000000
vn -0.000000 0.000000 1.000000
vn 0.000000 0.000000 1.000000
vn 0.000000 1.000000 0.000000
vn 0.000000 1.000000 0.000000
vn 0.000000 1.000000 0.000000
vn 0.000000 1.000000 0.000000
vn -0.000001 1.000000 0.000000
vn -0.000001 1.000000 0.000000
vn -0.000001 1.000000 0.000000
vn 0.000001 1.000000 0.000000
vn 0.000001 1.000000 0.000000
vn 0.000001 1.000000 0.000000
vn 1.000000 0.000000 0.000000
vn 1.000000 -0.000000 0.000000
vn -1.000000 -0.000004 0.000000
vn -1.000000 0.000000 0.000000
vn -1.000000 0.000000 0.000000
vn 1.000000 -0.000000 0.000000
vn 0.000000 0.000000 1.000000
vn 0.000000 -1.000000 0.000000
vn 0.000000 0.000000 -1.000000
vn 0.000000 1.000000 0.000000
vn 0.000000 1.000000 -0.000000
vn 0.000000 1.000000 0.000000
vn 0.000000 1.000000 -0.000000
vn 0.000000 1.000000 0.000000
s 1
g pCube6
usemtl initialShadingGroup
f 1//1 15//2 16//3 3//4
s 2
f 3/7/5 16/23/6 13/17/7 5/8/8
s off
f 5/8/9 13/17/10 14/18/11 7/19/12
s 3
f 7/28/13 14/29/14 15/30/15 1/31/16
s off
f 2/1/17 8/2/18 6/3/19 4/4/20
f 7/5/21 1/6/22 3/7/23 5/8/24
f 9/20/25 6/3/26 8/21/27 10/22/28
s 3
f 11/32/29 10/38/30 8/34/31 2/35/32
s 1
f 12//33 11//34 2//35 4//36
s 2
f 9/20/37 12/26/38 4/4/39 6/3/40
s off
f 17/15/41 18/12/42 19/11/43 20/16/44
s 3
f 15/30/15 14/29/14 10/38/30 11/32/29
s 1
f 16/23/3 15/24/2 11/25/34 12/26/33
s 2
f 13/17/7 16/23/6 12/26/38 9/20/37
s off
f 13/27/45 9/36/46 18/12/47 17/15/48
f 9/9/49 10/10/50 19/11/51 18/12/52
f 10/33/53 14/37/54 20/16/55 19/11/56
f 14/13/57 13/14/58 17/15/59 20/16/60
s 4
f 21/39/61 22/40/62 23/41/63
s 5
f 25/42/64 26/43/65 28/44/66
f 28/44/66 26/43/65 27/45/67
s 6
f 30/46/68 23/47/69 29/48/70
s 7
f 31/49/71 27/45/72 32/50/73
f 32/50/73 27/45/72 26/43/74
s 8
f 34/51/75 31/49/76 33/52/77
f 33/52/77 31/49/76 32/50/78
s 9
f 36/53/79 29/54/80 37/55/81
s 10
f 35/56/82 30/57/83 36/58/84
s 11
f 38/59/85 22/60/86 40/61/87
s 12
f 39/62/88 27/63/89 21/64/90
s 13
f 32/65/91 26/66/92 33/67/93
f 33/67/93 26/66/92 25/68/94
s 14
f 25/69/95 28/70/96 35/71/97
f 35/71/97 28/70/96 39/62/98
s 15
f 38/72/99 40/73/100 33/74/101
f 33/74/101 40/73/100 34/75/102
s 16
f 33/67/103 25/68/104 37/76/105
f 37/76/105 25/68/104 36/77/106
s off
f 25/68/107 35/78/108 36/77/109
f 38/79/110 33/67/111 37/76/112
s 11
f 23/80/113 38/59/85 29/81/114
s 10
f 24/82/115 35/56/82 21/83/116
f 21/83/116 35/56/82 39/84/117
f 24/82/115 30/57/83 35/56/82
s 11
f 23/80/113 22/60/86 38/59/85
f 29/81/114 38/59/85 37/85/118
s 9
f 36/53/79 30/86/119 29/54/80
s 6
f 24/87/120 23/47/69 30/46/68
s 4
f 21/39/61 23/41/63 24/88/121
s 12
f 40/73/122 31/89/123 34/75/124
f 21/64/90 27/63/89 22/90/125
f 22/90/125 27/63/89 31/89/123
f 28/70/126 27/63/89 39/62/88
f 22/90/125 31/89/123 40/73/122
