# This file uses centimeters as units for non-parametric coordinates.

mtllib PortableComputerTerminalClosed.mtl
g default
v -0.260105 0.156754 -0.260105
v 0.260105 0.156754 -0.260105
v 0.260105 0.000000 -0.260105
v -0.260105 0.000000 -0.260105
v -0.134017 0.102577 -0.050942
v -0.134017 0.102577 -0.124995
v -0.134017 0.156754 -0.124995
v -0.134017 0.156754 -0.050942
v 0.260105 0.000000 0.260105
v -0.260105 0.000000 0.260105
v 0.134018 0.156754 -0.124995
v 0.134018 0.102577 -0.124995
v 0.134018 0.102577 -0.050942
v 0.134018 0.156754 -0.050942
v -0.260105 0.102577 -0.050942
v -0.260105 0.102577 0.260105
v 0.260105 0.102577 0.260105
v 0.260105 0.102577 -0.050942
v -0.260105 0.156754 -0.050942
v 0.260105 0.156754 -0.050942
v -0.260105 0.106687 0.261976
v 0.260105 0.106687 0.261976
v -0.260105 0.164266 0.261976
v 0.260105 0.164266 0.261976
v -0.260105 0.164266 -0.049071
v 0.260105 0.164266 -0.049071
v -0.260105 0.106687 -0.049071
v 0.260105 0.106687 -0.049071
v 0.134018 0.164266 -0.049071
v 0.134018 0.106687 -0.049071
v 0.260105 0.106687 0.261976
v 0.260105 0.164266 0.261976
v -0.134017 0.164266 -0.049071
v -0.134017 0.106687 -0.049071
v -0.260105 0.106687 0.261976
v -0.260105 0.164266 0.261976
v -0.134017 0.164266 -0.111607
v 0.134018 0.164266 -0.111607
v 0.134018 0.140249 -0.111607
v -0.134017 0.140249 -0.111607
vt 0.017629 0.022756
vt 0.354957 0.360085
vt 0.354957 0.022756
vt 0.017628 0.609392
vt 0.098632 0.656967
vt 0.017628 0.743767
vt 0.610525 0.272473
vt 0.436718 0.272473
vt 0.610525 0.224454
vt 0.436718 0.224454
vt 0.692286 0.022756
vt 0.354957 0.022756
vt 0.354957 0.224454
vt 0.692286 0.224454
vt 0.017629 0.360085
vt 0.351832 0.609392
vt 0.270829 0.656967
vt 0.270829 0.609392
vt 0.351832 0.743767
vt 0.098632 0.609392
vt 0.354830 0.439216
vt 0.692470 0.439216
vt 0.692470 0.316344
vt 0.017628 0.439216
vt 0.354957 0.360085
vt 0.354957 0.439216
vt 0.098632 0.578945
vt 0.017628 0.578945
vt 0.351832 0.578944
vt 0.270829 0.578944
vt 0.017628 0.360085
vt 0.354830 0.316344
vt 0.617036 0.316344
vt 0.431322 0.316344
vt 0.617036 0.272992
vt 0.431322 0.272992
vt 0.354830 0.272992
vt 0.354830 0.316344
vt 0.693528 0.316344
vt 0.693528 0.272992
vt 0.490461 0.520747
vt 0.692159 0.439216
vt 0.692159 0.520747
vt 0.219251 0.520788
vt 0.354831 0.563871
vt 0.219251 0.563871
vt 0.354831 0.439216
vt 0.017628 0.439216
vt 0.354831 0.439216
vt 0.354831 0.563809
vt 0.490461 0.563809
vt 0.017628 0.520788
vt 0.485013 0.732453
vt 0.485013 0.732453
vt 0.590184 0.946421
vt 0.485013 0.946421
vt 0.590184 0.994018
vt 0.485013 0.994018
vt 0.740804 0.636244
vt 0.740803 0.531073
vt 0.972448 0.636244
vt 0.972448 0.636244
vt 0.971975 0.732454
vt 0.971975 0.946421
vt 0.918925 0.946421
vt 0.918925 0.732453
vt 0.431963 0.946421
vt 0.431963 0.732453
vt 0.813755 0.946421
vt 0.918925 0.994018
vt 0.813755 0.994018
vt 0.972448 0.202333
vt 0.740803 0.307503
vt 0.740803 0.202333
vt 0.972448 0.202333
vt 0.918925 0.732453
vt 0.312608 0.872186
vt 0.089038 0.872186
vt 0.089038 0.893381
vt 0.312609 0.893381
vt 0.485013 0.684211
vt 0.918925 0.684211
vt 0.312608 0.825911
vt 0.089038 0.825911
vt 0.036061 0.872185
vt 0.036060 0.923002
vt 0.089038 0.950822
vt 0.312608 0.950822
vt 0.365588 0.923001
vt 0.365584 0.872185
vn 0.000000 0.000000 -1.000000
vn 0.000000 0.000000 -1.000000
vn 0.000000 0.000000 -1.000000
vn 1.000000 0.000000 0.000000
vn 1.000000 0.000000 0.000000
vn 1.000000 0.000000 0.000000
vn 1.000000 0.000000 0.000000
vn 0.000000 -1.000000 0.000000
vn 0.000000 -1.000000 0.000000
vn 0.000000 -1.000000 0.000000
vn 0.000000 0.000000 1.000000
vn 0.000000 0.000000 1.000000
vn 0.000000 0.000000 1.000000
vn 0.000000 0.000000 1.000000
vn -1.000000 0.000000 0.000000
vn -1.000000 0.000000 0.000000
vn -1.000000 0.000000 0.000000
vn -1.000000 0.000000 0.000000
vn 0.000000 0.000000 1.000000
vn 0.000000 0.000000 1.000000
vn 0.000000 0.000000 1.000000
vn -1.000000 0.000000 0.000000
vn -1.000000 0.000000 0.000000
vn -1.000000 0.000000 0.000000
vn 1.000000 -0.000000 0.000000
vn 1.000000 0.000000 0.000000
vn 1.000000 0.000000 0.000000
vn 0.000000 1.000000 0.000000
vn 0.000000 1.000000 -0.000000
vn 0.000000 1.000000 0.000000
vn 0.000000 1.000000 0.000000
vn 0.000000 1.000000 0.000000
vn 0.000000 1.000000 0.000000
vn 0.000000 1.000000 0.000000
vn 0.000000 0.000000 1.000000
vn 0.000000 0.000000 1.000000
vn 0.000000 0.000000 1.000000
vn 0.000000 0.000000 1.000000
vn -0.000000 0.000000 1.000000
vn -0.000000 0.000000 1.000000
vn -0.000000 0.000000 1.000000
vn 0.000000 0.000000 1.000000
vn 0.000000 1.000000 0.000000
vn 0.000000 1.000000 0.000000
vn 0.000000 1.000000 0.000000
vn 0.000000 1.000000 0.000000
vn -0.000001 1.000000 0.000000
vn -0.000001 1.000000 0.000000
vn -0.000001 1.000000 0.000000
vn 0.000001 1.000000 0.000000
vn 0.000001 1.000000 0.000000
vn 0.000001 1.000000 0.000000
vn 1.000000 0.000000 0.000000
vn 1.000000 -0.000000 0.000000
vn -1.000000 0.000000 0.000000
vn -1.000000 0.000000 0.000000
vn -1.000000 0.000000 0.000000
vn 1.000000 -0.000000 0.000000
vn 0.000000 0.000000 1.000000
vn 0.000000 -1.000000 0.000000
vn 0.000000 0.000000 -1.000000
vn 0.000000 1.000000 0.000000
vn 0.000000 1.000000 -0.000000
vn 0.000000 1.000000 0.000000
vn 0.000000 1.000000 -0.000000
vn 0.000000 1.000000 0.000000
vn 0.000000 0.000000 0.000000
vn 0.000000 0.000000 1.000000
vn 0.000000 0.000000 1.000000
vn 0.000000 0.000000 0.000000
vn -0.000000 1.000000 -0.000000
vn -0.000000 1.000000 -0.000000
vn -0.000000 1.000000 -0.000000
vn -0.000000 1.000000 -0.000000
vn 0.000000 0.000000 -1.000000
vn 0.000000 0.000000 -1.000000
vn 0.000000 0.000000 -1.000000
vn 0.000000 0.000000 -1.000000
vn 0.000000 -1.000000 0.000000
vn 0.000000 -1.000000 0.000000
vn 0.000000 -1.000000 0.000000
vn 0.000000 -1.000000 0.000000
vn 1.000000 0.000000 0.000000
vn 1.000000 0.000000 0.000000
vn 1.000000 0.000000 0.000000
vn 1.000000 0.000000 0.000000
vn -1.000000 0.000000 0.000000
vn -1.000000 0.000000 0.000000
vn -1.000000 0.000000 0.000000
vn -1.000000 0.000000 0.000000
vn 0.000000 0.000000 -1.000000
vn 0.000000 0.000000 -1.000000
vn 0.000000 0.000000 -1.000000
vn 0.000000 0.000000 -1.000000
vn -0.000000 -1.000000 0.000000
vn -0.000000 -1.000000 0.000000
vn -0.000000 -1.000000 0.000000
vn -0.000000 -1.000000 0.000000
vn -0.000000 0.000000 1.000000
vn -0.000000 0.000000 1.000000
vn -0.000000 0.000000 0.000000
vn -0.000000 0.000000 0.000000
vn 0.000000 1.000000 -0.000000
vn 0.000000 1.000000 -0.000000
vn 0.000000 1.000000 -0.000000
vn 0.000000 1.000000 -0.000000
vn 0.000000 0.000000 -1.000000
vn 0.000000 0.000000 -1.000000
vn 0.000000 0.000000 -1.000000
vn 0.000000 0.000000 -1.000000
vn 0.000000 1.000000 0.000000
vn 0.000000 1.000000 0.000000
vn 0.000000 1.000000 0.000000
vn 0.000000 1.000000 0.000000
vn 1.000000 0.000000 0.000000
vn 1.000000 0.000000 0.000000
vn 1.000000 0.000000 0.000000
vn 1.000000 0.000000 0.000000
vn 0.000000 -0.881122 -0.472889
vn 0.000000 -0.881122 -0.472889
vn 0.000000 -0.881122 -0.472889
vn 0.000000 -0.881122 -0.472889
vn -1.000000 0.000000 0.000000
vn -1.000000 0.000000 0.000000
vn -1.000000 0.000000 0.000000
vn -1.000000 0.000000 0.000000
s 1
g polySurface135
usemtl initialShadingGroup
f 1/21/1 2/22/2 3/23/3
s 2
f 5/37/4 6/36/5 8/38/6
f 8/38/6 6/36/5 7/34/7
s 3
f 10/1/8 3/2/9 9/3/10
s 4
f 11/33/11 7/34/12 12/35/13
f 12/35/13 7/34/12 6/36/14
s 5
f 14/39/15 11/33/16 13/40/17
f 13/40/17 11/33/16 12/35/18
s 6
f 16/24/19 9/25/20 17/26/21
s 7
f 15/41/22 10/42/23 16/43/24
s 8
f 18/44/25 2/45/26 20/46/27
s 9
f 19/4/28 7/5/29 1/6/30
s 10
f 12/7/31 6/8/32 13/9/33
f 13/9/33 6/8/32 5/10/34
s 11
f 5/27/35 8/20/36 15/28/37
f 15/28/37 8/20/36 19/4/38
s 12
f 18/29/39 20/16/40 13/30/41
f 13/30/41 20/16/40 14/18/42
s 13
f 13/9/43 5/10/44 17/11/45
f 17/11/45 5/10/44 16/12/46
s off
f 5/10/47 15/13/48 16/12/49
f 18/14/50 13/9/51 17/11/52
s 8
f 3/47/53 18/44/25 9/48/54
s 7
f 4/49/55 15/41/22 1/50/56
f 1/50/56 15/41/22 19/51/57
f 4/49/55 10/42/23 15/41/22
s 8
f 3/47/53 2/45/26 18/44/25
f 9/48/54 18/44/25 17/52/58
s 6
f 16/24/19 10/31/59 9/25/20
s 3
f 4/15/60 3/2/9 10/1/8
s 1
f 1/21/1 3/23/3 4/32/61
s 9
f 20/16/62 11/17/63 14/18/64
f 1/6/30 7/5/29 2/19/65
f 2/19/65 7/5/29 11/17/63
f 8/20/66 7/5/29 19/4/28
f 2/19/65 11/17/63 20/16/62
s 15
f 21//67 35//68 36//69 23//70
s 16
f 23/53/71 36/54/72 33/55/73 25/56/74
s off
f 25/56/75 33/55/76 34/57/77 27/58/78
s 17
f 27/59/79 34/60/80 35/61/81 21/62/82
s off
f 22/63/83 28/64/84 26/65/85 24/66/86
f 27/67/87 21/68/88 23/53/89 25/56/90
f 29/69/91 26/65/92 28/70/93 30/71/94
s 17
f 31/72/95 30/73/96 28/74/97 22/75/98
s 15
f 32//99 31//100 22//101 24//102
s 16
f 29/69/103 32/76/104 24/66/105 26/65/106
s off
f 37/77/107 38/78/108 39/79/109 40/80/110
s 17
f 35/61/81 34/60/80 30/73/96 31/72/95
s 15
f 36/54/69 35/81/68 31/82/100 32/76/99
s 16
f 33/55/73 36/54/72 32/76/104 29/69/103
s off
f 33/83/111 29/84/112 38/78/113 37/77/114
f 29/85/115 30/86/116 39/79/117 38/78/118
f 30/87/119 34/88/120 40/80/121 39/79/122
f 34/89/123 33/90/124 37/77/125 40/80/126
